<svg width="99" height="81" viewBox="0 0 99 81" fill="none" xmlns="http://www.w3.org/2000/svg">
<path d="M80.1729 15.582L97.5555 15.5574C97.5555 15.5574 96.6884 14.44 95.7364 14.2925C95.7364 14.2925 93.8747 8.77913 90.7728 8.74561C87.8876 8.71208 86.7366 12.1448 86.7366 12.1448C86.7366 12.1448 85.3957 10.6072 84.1219 11.3134C82.848 12.0197 82.1262 14.0332 82.1262 14.0332C82.1262 14.0332 80.6914 14.8087 80.1729 15.582Z" fill="#EBEBEB"/>
<path d="M43.1886 18.7063L21.2067 18.7399C21.2067 18.7399 21.2067 17.3341 24.2327 17.0548C24.2327 17.0548 26.9883 10.9134 31.2099 11.7314C33.8403 12.2409 35.1879 15.848 35.1879 15.848C35.1879 15.848 37.1702 13.0052 38.7636 13.5528C40.3571 14.1003 41.3002 17.1285 41.3002 17.1285C41.3002 17.1285 42.9383 17.9241 43.1886 18.7063Z" fill="#EBEBEB"/>
<path d="M76.2396 34.7793L61.293 34.8016C61.293 34.8016 62.7032 33.4875 63.3289 33.4875C63.9547 33.4875 65.7872 29.076 68.1182 29.2592C70.4491 29.4425 71.6939 32.7232 71.6939 32.7232C71.6939 32.7232 74.5478 31.8293 76.2396 34.7793Z" fill="#EBEBEB"/>
<path d="M13.816 30.6628L1.03271 30.6829C1.03271 30.6829 1.66741 29.8537 2.37362 29.7509C2.37362 29.7509 3.72794 25.6925 6.00971 25.6589C8.13058 25.6299 8.98429 28.1486 8.98429 28.1486C8.98429 28.1486 9.96539 27.0177 10.9063 27.5317C11.8471 28.0458 12.379 29.5275 12.379 29.5275C12.379 29.5275 13.4316 30.0862 13.816 30.6628Z" fill="#EBEBEB"/>
<g opacity="0.3">
<path d="M24.8291 9.86302C24.8291 12.3524 23.8402 14.7399 22.0799 16.5002C20.3197 18.2605 17.9322 19.2494 15.4428 19.2494C10.2557 19.2494 5.81732 15.0456 5.81732 9.86302C5.81732 4.68042 10.2513 0.237549 15.4383 0.237549C20.6254 0.237549 24.8291 4.67595 24.8291 9.86302Z" fill="#FFC727"/>
</g>
<g opacity="0.3">
<path d="M15.2236 17.533C13.1843 17.5324 11.2286 16.722 9.78657 15.28C8.34453 13.8379 7.53413 11.8823 7.53354 9.8429C7.53354 5.5967 10.9774 1.95837 15.2236 1.95837C19.4698 1.95837 23.1082 5.59446 23.1082 9.8429C23.1082 14.0913 19.4721 17.533 15.2236 17.533Z" fill="#FFC727"/>
</g>
<path d="M15.4204 16.4044C19.0429 16.4044 21.9796 13.4677 21.9796 9.84516C21.9796 6.22257 19.0429 3.28589 15.4204 3.28589C11.7978 3.28589 8.86108 6.22257 8.86108 9.84516C8.86108 13.4677 11.7978 16.4044 15.4204 16.4044Z" fill="#FFC727"/>
<path d="M34.3986 79.579L33.4086 90.8002H60.0032C60.0032 90.8002 57.0331 68.3668 57.0331 68.1701C57.0331 67.9735 62.4437 61.1103 61.257 46.5279C59.773 28.3787 47.059 22.1167 34.2668 22.1167C21.4745 22.1167 12.4949 33.9413 11.2479 42.3778L6.55469 61.374L12.6893 62.2322C12.6893 62.2322 12.953 75.0959 16.2651 78.3945C19.5771 81.6932 34.3986 79.579 34.3986 79.579Z" fill="white"/>
<path opacity="0.41" d="M34.3986 79.579L33.4086 90.8002H60.0032C60.0032 90.8002 57.0331 68.3668 57.0331 68.1701C57.0331 67.9735 62.4437 61.1103 61.257 46.5279C59.773 28.3787 47.059 22.1167 34.2668 22.1167C21.4745 22.1167 12.4949 33.9413 11.2479 42.3778L6.55469 61.374L12.6893 62.2322C12.6893 62.2322 12.953 75.0959 16.2651 78.3945C19.5771 81.6932 34.3986 79.579 34.3986 79.579Z" fill="#FFC727"/>
<path d="M57.507 47.0374C57.0154 49.2901 54.0296 50.3897 54.0296 50.3897C53.8464 50.7964 54.8632 58.7413 55.147 59.195C55.4309 59.6486 53.7503 60.8197 53.529 60.5582C53.3078 60.2967 51.3433 55.1275 47.2558 54.1978C46.6368 54.9085 45.8747 55.4803 45.0193 55.8759C44.1639 56.2714 43.2346 56.4817 42.2922 56.493C39.007 56.5735 36.6157 54.2224 36.6157 54.2224C36.6157 54.2224 34.2982 57.6417 29.4396 56.759C24.5811 55.8762 23.5508 52.0435 23.5508 52.0435C23.5508 52.0435 17.2731 53.9408 14.8617 48.8074C13.0158 44.8808 15.0405 42.0202 16.0864 40.9005C16.2547 40.7149 16.4354 40.5409 16.6273 40.3798C16.6273 40.3798 16.1088 35.6174 19.0521 33.121C21.9954 30.6247 25.8818 30.9242 25.8818 30.9242C25.8818 30.9242 27.4461 26.1036 31.9449 25.165C36.4436 24.2264 39.1679 26.8344 39.1679 26.8344C40.5042 26.2431 41.9482 25.9339 43.4094 25.9262C44.8707 25.9185 46.3179 26.2125 47.6603 26.7897C52.3311 28.7363 52.1881 33.3758 52.1881 33.3758C52.1881 33.3758 55.5851 34.4932 56.7114 37.2667C57.8378 40.0401 55.9963 42.8225 55.9963 42.8225C55.9963 42.8225 57.9965 44.7847 57.507 47.0374Z" fill="#FFC727"/>
<g style="mix-blend-mode:multiply" opacity="0.1">
<g style="mix-blend-mode:multiply">
<path d="M47.2558 54.1956C46.6368 54.9063 45.8747 55.4781 45.0193 55.8736C44.1639 56.2692 43.2346 56.4795 42.2922 56.4908C39.007 56.5712 36.6157 54.2202 36.6157 54.2202C36.6157 54.2202 34.2982 57.6395 29.4396 56.7567C24.5811 55.874 23.5508 52.0412 23.5508 52.0412C23.5508 52.0412 17.2731 53.9386 14.8617 48.8052C13.0158 44.8785 15.0405 42.0179 16.0864 40.8983L16.6273 40.3776C16.5982 40.458 14.8796 45.2451 17.9279 48.242C20.9763 51.2389 25.3812 49.2879 25.3812 49.2879C25.3812 49.2879 25.9443 54.0258 29.7212 55.1097C33.916 56.3142 36.6358 53.1251 36.6358 53.1251C36.6358 53.1251 41.5413 58.4686 47.2558 54.1956Z" fill="#222221"/>
</g>
</g>
<g style="mix-blend-mode:multiply" opacity="0.1">
<path d="M53.54 60.556C53.3165 60.2968 51.3543 55.1253 47.2668 54.1957C47.2668 54.1957 50.6191 52.2268 52.1633 53.6057C53.7076 54.9846 53.54 60.556 53.54 60.556Z" fill="#222221"/>
</g>
<path d="M49.0705 23.1849C49.3096 23.0509 49.7007 22.8587 49.9823 22.9123C50.0296 22.9257 50.0732 22.9496 50.1099 22.9822C50.1466 23.0148 50.1755 23.0553 50.1944 23.1006C50.2134 23.1459 50.2218 23.195 50.2191 23.244C50.2164 23.293 50.2027 23.3408 50.179 23.3838C50.0214 23.6656 49.7822 23.8931 49.4929 24.0364C49.3435 24.1095 49.1823 24.1557 49.0169 24.1727C48.8381 24.241 48.6471 24.2714 48.4559 24.2621H48.4202C48.4146 24.2642 48.4087 24.2651 48.4027 24.2647C48.3968 24.2643 48.391 24.2627 48.3858 24.26C48.3805 24.2573 48.3759 24.2535 48.3722 24.2488C48.3685 24.2442 48.3658 24.2388 48.3643 24.2331L48.333 24.2219C47.8749 24.023 48.8962 23.2877 49.0705 23.1849Z" fill="#FFC727"/>
<g style="mix-blend-mode:multiply" opacity="0.3">
<path d="M49.0705 23.1849C49.3096 23.0509 49.7007 22.8587 49.9823 22.9123C50.0296 22.9257 50.0732 22.9496 50.1099 22.9822C50.1466 23.0148 50.1755 23.0553 50.1944 23.1006C50.2134 23.1459 50.2218 23.195 50.2191 23.244C50.2164 23.293 50.2027 23.3408 50.179 23.3838C50.0214 23.6656 49.7822 23.8931 49.4929 24.0364C49.3435 24.1095 49.1823 24.1557 49.0169 24.1727C48.8381 24.241 48.6471 24.2714 48.4559 24.2621H48.4202C48.4146 24.2642 48.4087 24.2651 48.4027 24.2647C48.3968 24.2643 48.391 24.2627 48.3858 24.26C48.3805 24.2573 48.3759 24.2535 48.3722 24.2488C48.3685 24.2442 48.3658 24.2388 48.3643 24.2331L48.333 24.2219C47.8749 24.023 48.8962 23.2877 49.0705 23.1849Z" fill="#222221"/>
</g>
<path d="M44.1739 24.1146C44.0621 24.4141 43.8811 24.9303 44.0979 25.232C44.1103 25.2508 44.1279 25.2654 44.1486 25.2742C44.1692 25.2829 44.192 25.2854 44.2141 25.2812C44.3436 25.2414 44.4546 25.1566 44.527 25.0421C44.8023 24.7631 45.0135 24.4276 45.146 24.0587C45.2399 23.8017 45.1036 23.4173 44.775 23.4196C44.4465 23.4218 44.2655 23.8621 44.1739 24.1146Z" fill="#FFC727"/>
<g style="mix-blend-mode:multiply" opacity="0.3">
<path d="M44.1739 24.1146C44.0621 24.4141 43.8811 24.9303 44.0979 25.232C44.1103 25.2508 44.1279 25.2654 44.1486 25.2742C44.1692 25.2829 44.192 25.2854 44.2141 25.2812C44.3436 25.2414 44.4546 25.1566 44.527 25.0421C44.8023 24.7631 45.0135 24.4276 45.146 24.0587C45.2399 23.8017 45.1036 23.4173 44.775 23.4196C44.4465 23.4218 44.2655 23.8621 44.1739 24.1146Z" fill="#222221"/>
</g>
<path d="M41.6954 26.5975C41.7758 26.8478 42.0463 27.1517 42.2139 26.7763C42.2188 26.7662 42.2214 26.7551 42.2214 26.7439C42.2214 26.7327 42.2188 26.7216 42.2139 26.7115C42.4374 26.2645 42.6608 25.784 42.4374 25.2834C42.2966 24.9571 41.9524 24.9437 41.7222 25.2007C41.3937 25.565 41.5635 26.193 41.6954 26.5975Z" fill="#FFC727"/>
<g style="mix-blend-mode:multiply" opacity="0.3">
<path d="M41.6954 26.5975C41.7758 26.8478 42.0463 27.1517 42.2139 26.7763C42.2188 26.7662 42.2214 26.7551 42.2214 26.7439C42.2214 26.7327 42.2188 26.7216 42.2139 26.7115C42.4374 26.2645 42.6608 25.784 42.4374 25.2834C42.2966 24.9571 41.9524 24.9437 41.7222 25.2007C41.3937 25.565 41.5635 26.193 41.6954 26.5975Z" fill="#222221"/>
</g>
<path d="M48.581 24.2643C48.1944 24.5392 47.4211 24.7113 47.1686 24.7471C47.0725 24.8119 45.4969 25.5918 44.9203 26.0723C44.5362 26.3939 44.1824 26.75 43.8633 27.1361C44.5245 26.7135 45.2287 26.3621 45.964 26.088C46.6345 25.8377 47.4167 25.7349 48.0961 26.0299C48.0961 26.0522 47.2155 26.4411 46.8378 26.6377C46.4601 26.8344 46.1674 27.0557 45.8076 27.2076C45.13 27.4641 44.3957 27.5328 43.6822 27.4065C43.6733 27.4046 43.6649 27.4008 43.6577 27.3954C43.1987 27.9775 42.833 28.6274 42.5738 29.3218C41.9346 31.1097 41.9703 32.9266 42.2229 34.6206C42.2028 34.5893 42.1782 34.5625 42.1536 34.5312C42.0844 34.4389 42.0098 34.3509 41.9301 34.2675C41.8551 33.741 41.8133 33.2103 41.805 32.6785C41.806 32.6704 41.806 32.6621 41.805 32.6539C41.2034 32.34 40.7197 31.8398 40.4261 31.2281C40.1406 30.4818 39.9164 29.7134 39.7556 28.9307C40.4873 29.3328 41.062 29.9697 41.387 30.7387C41.5746 31.1719 41.7242 31.6205 41.834 32.0796C41.8452 31.8271 41.8608 31.5768 41.8899 31.3264C41.8046 30.435 41.7911 29.5382 41.8497 28.6446C41.8764 28.2533 41.9256 27.8638 41.9972 27.478C41.9017 27.2367 41.8327 26.9857 41.7916 26.7294C41.7855 26.6402 41.8024 26.5509 41.8407 26.4701C41.875 26.3811 41.9419 26.3084 42.0278 26.2669C42.1138 26.2254 42.2123 26.2181 42.3033 26.2466C42.3197 26.251 42.3342 26.2605 42.3447 26.2738C42.3552 26.2871 42.361 26.3035 42.3614 26.3204C42.3614 26.3673 42.3614 26.4165 42.3614 26.4657C42.3134 26.804 42.2387 27.1381 42.138 27.4646C42.0412 27.9744 41.9822 28.4905 41.9614 29.0089C41.9391 29.5565 41.9614 30.0995 41.9882 30.6448C42.0706 30.2313 42.1849 29.8249 42.3302 29.4291C42.454 28.6441 42.6919 27.8814 43.0364 27.1652C43.2577 26.7278 43.5047 26.304 43.7761 25.8958C43.819 25.5864 43.8939 25.2823 43.9996 24.9884C44.08 24.7918 44.194 24.6465 44.3482 24.6554C44.5918 24.6554 44.5985 24.8342 44.5158 25.0376C44.3916 25.2895 44.2402 25.527 44.0644 25.746C43.5824 26.4292 43.1776 27.1638 42.8576 27.9362C42.7699 28.1687 42.6953 28.406 42.6341 28.6469C43.1918 27.522 44.0101 26.5467 45.0209 25.8019C45.7017 25.3396 46.421 24.9366 47.1708 24.5973C47.5038 24.3515 47.8145 24.09 48.143 23.8218C48.2426 23.7132 48.3714 23.6356 48.514 23.5984C48.552 23.5959 48.5901 23.6033 48.6245 23.6197C48.6589 23.6361 48.6886 23.6611 48.7106 23.6922C48.8894 23.9291 48.7933 24.1124 48.581 24.2643Z" fill="#455A64"/>
<g style="mix-blend-mode:multiply" opacity="0.1">
<path d="M36.7787 33.5547C37.367 33.2938 37.9978 33.1424 38.6404 33.1077C38.966 33.0842 39.2931 33.0932 39.617 33.1345C39.944 33.1783 40.2655 33.2569 40.5757 33.3692C40.8858 33.4929 41.1787 33.6558 41.4473 33.8541C41.7088 34.0535 41.9459 34.283 42.1535 34.538C42.5667 35.0356 42.8712 35.6142 43.0475 36.2365C42.7344 35.6962 42.3553 35.1969 41.9189 34.7503C41.4995 34.3157 40.9931 33.9745 40.4327 33.7491C39.8589 33.5422 39.2547 33.4319 38.6448 33.4228C38.02 33.4071 37.3951 33.4513 36.7787 33.5547Z" fill="#222221"/>
<path d="M46.8935 35.4364C46.5579 35.2426 46.2028 35.0846 45.8342 34.9648C45.4794 34.8502 45.1114 34.7811 44.7391 34.7592C44.6461 34.7536 44.5528 34.7536 44.4598 34.7592C44.3675 34.7525 44.2749 34.7525 44.1827 34.7592L43.9011 34.7793C43.8094 34.7972 43.7156 34.8129 43.6217 34.8263L43.4809 34.8464L43.3424 34.8821L43.0608 34.9469C42.8708 34.9939 42.6898 35.0609 42.4886 35.1056C42.6462 34.98 42.812 34.8651 42.9848 34.7615C43.1637 34.6644 43.3506 34.5829 43.5435 34.5179C43.6418 34.4866 43.7402 34.4553 43.8385 34.4285L44.1424 34.3771C44.2449 34.3581 44.3489 34.3491 44.4531 34.3502C44.5565 34.3435 44.6603 34.3435 44.7637 34.3502C45.1786 34.3734 45.5842 34.4822 45.9549 34.6698C46.325 34.8459 46.647 35.1089 46.8935 35.4364Z" fill="#222221"/>
</g>
<path d="M55.6453 34.5491C54.9974 34.9206 54.3255 35.2483 53.634 35.5302C53.3055 35.6893 52.9646 35.8216 52.6149 35.9258C52.4227 35.9782 52.2191 35.9704 52.0316 35.9034C51.9254 35.8833 51.8301 35.8253 51.7634 35.7403C51.747 35.7223 51.7369 35.6996 51.7343 35.6755C51.4416 35.4118 51.3544 34.9871 51.265 34.5938C51.0807 33.8095 50.9796 33.008 50.9633 32.2025C50.9633 31.9098 50.903 31.5321 51.0371 31.2505C51.1197 31.0829 51.2225 31.0672 51.3522 30.9734C51.6606 30.7499 51.6695 30.4616 51.893 30.1845C51.9441 30.1051 52.0158 30.0412 52.1004 29.9995C52.1851 29.9578 52.2795 29.9398 52.3735 29.9476C52.8428 30.0414 52.7936 30.9532 52.8205 31.2885C52.8786 31.9786 52.8786 32.6723 52.8205 33.3624C52.7817 33.9858 52.6867 34.6044 52.5366 35.2106C53.1652 34.2612 53.9269 33.407 54.7983 32.6741C55.1112 32.4081 55.6118 31.9723 56.0632 32.131C56.2465 32.1958 56.2264 32.3344 56.3448 32.4327C56.5951 32.6405 56.8678 32.4327 57.1292 32.5579C58.1081 33.0495 55.9828 34.3569 55.6453 34.5491Z" fill="#FFC727"/>
<g style="mix-blend-mode:multiply" opacity="0.3">
<path d="M55.6453 34.5491C54.9974 34.9206 54.3255 35.2483 53.634 35.5302C53.3055 35.6893 52.9646 35.8216 52.6149 35.9258C52.4227 35.9782 52.2191 35.9704 52.0316 35.9034C51.9254 35.8833 51.8301 35.8253 51.7634 35.7403C51.747 35.7223 51.7369 35.6996 51.7343 35.6755C51.4416 35.4118 51.3544 34.9871 51.265 34.5938C51.0807 33.8095 50.9796 33.008 50.9633 32.2025C50.9633 31.9098 50.903 31.5321 51.0371 31.2505C51.1197 31.0829 51.2225 31.0672 51.3522 30.9734C51.6606 30.7499 51.6695 30.4616 51.893 30.1845C51.9441 30.1051 52.0158 30.0412 52.1004 29.9995C52.1851 29.9578 52.2795 29.9398 52.3735 29.9476C52.8428 30.0414 52.7936 30.9532 52.8205 31.2885C52.8786 31.9786 52.8786 32.6723 52.8205 33.3624C52.7817 33.9858 52.6867 34.6044 52.5366 35.2106C53.1652 34.2612 53.9269 33.407 54.7983 32.6741C55.1112 32.4081 55.6118 31.9723 56.0632 32.131C56.2465 32.1958 56.2264 32.3344 56.3448 32.4327C56.5951 32.6405 56.8678 32.4327 57.1292 32.5579C58.1081 33.0495 55.9828 34.3569 55.6453 34.5491Z" fill="#222221"/>
</g>
<path d="M54.9524 31.0427C54.2506 32.4596 53.464 33.8296 52.7868 35.2576C52.7689 35.2934 52.7086 35.2576 52.7242 35.2308C53.2517 33.9234 53.9623 32.7032 54.606 31.4517C54.9445 30.8379 55.2043 30.1839 55.3792 29.5052C55.4865 29.0425 55.5133 28.6112 55.8262 28.2559C55.8388 28.2399 55.8555 28.2276 55.8744 28.2201C55.8933 28.2126 55.9139 28.2102 55.934 28.2131C55.9541 28.2161 55.9732 28.2243 55.9891 28.2369C56.0051 28.2495 56.0175 28.266 56.0251 28.2849C56.2128 28.7319 55.6787 29.3822 55.3971 29.8091C55.291 30.2343 55.142 30.6476 54.9524 31.0427Z" fill="#263238"/>
<path d="M52.1746 30.8482C51.6673 32.1511 51.5533 33.5658 51.388 34.938C51.388 34.9445 51.3854 34.9508 51.3808 34.9554C51.3761 34.96 51.3699 34.9626 51.3634 34.9626C51.3569 34.9626 51.3506 34.96 51.346 34.9554C51.3414 34.9508 51.3388 34.9445 51.3388 34.938C51.3522 33.1099 51.7858 31.0806 52.7512 29.5095C52.8361 29.3687 53.3993 28.5061 53.6273 28.7944C53.748 28.9486 53.4798 29.1967 53.3926 29.2838C53.1133 29.5788 52.7669 29.7822 52.5121 30.1062C52.3758 30.361 52.2663 30.6158 52.1746 30.8482Z" fill="#263238"/>
<path d="M57.2968 31.2997C57.1686 31.9216 56.9212 32.5128 56.5682 33.0406C55.8531 34.1804 54.8295 35.09 53.7456 35.8699C53.7211 35.89 53.6898 35.8453 53.7121 35.8275C54.7468 34.9961 55.7682 34.1245 56.4811 32.9892C56.6674 32.694 56.8289 32.3838 56.9638 32.0617L56.9951 31.9858C56.9935 31.983 56.9927 31.98 56.9927 31.9768C56.9927 31.9737 56.9935 31.9706 56.9951 31.9679C57.0446 31.5869 57.0506 31.2015 57.013 30.8192C56.979 30.6568 57.0052 30.4876 57.0867 30.3432C57.0903 30.3371 57.0957 30.3324 57.1021 30.3296C57.1085 30.3268 57.1156 30.3261 57.1225 30.3275C57.4398 30.4102 57.3393 31.0717 57.2968 31.2997Z" fill="#263238"/>
<path d="M56.6509 35.6509C55.2742 36.4152 53.6271 36.6678 52.1812 37.26C51.8504 37.3941 51.5241 37.5438 51.2001 37.707C51.1008 37.761 50.9986 37.8095 50.8939 37.8522C50.8285 37.8776 50.7574 37.8845 50.6883 37.8723C50.6591 37.8682 50.631 37.8583 50.6056 37.8433C50.559 37.8168 50.5195 37.7794 50.4907 37.7342C50.4619 37.689 50.4446 37.6375 50.4402 37.584C50.4141 37.3604 50.4239 37.1341 50.4693 36.9136C50.4492 36.6767 50.4089 36.4398 50.3844 36.2297C50.3531 35.9213 50.3129 35.6174 50.2659 35.3112C50.1609 34.6631 49.9977 34.0284 49.8368 33.3915C49.6792 32.8562 49.6039 32.3001 49.6133 31.7422C49.6133 31.4449 49.6647 30.8907 49.9285 30.6962C50.1922 30.5018 50.3352 30.6806 50.4291 30.9019C50.5229 31.1231 50.5162 31.3488 50.5855 31.5544C50.6928 31.874 50.8827 31.9053 51.0928 32.1042C51.2181 32.2455 51.3118 32.4118 51.3677 32.5922C51.4236 32.7725 51.4403 32.9628 51.4169 33.1501C51.399 33.4518 51.3655 33.7557 51.3252 34.0552C51.4146 33.7848 51.5152 33.5166 51.618 33.2551C51.8035 32.7836 51.9867 32.1958 52.3399 31.8181C52.4518 31.6914 52.5918 31.5927 52.7488 31.5298C53.088 31.4369 53.3965 31.2557 53.6428 31.0047C53.8841 30.7365 54.197 30.2515 54.6239 30.3163C55.0507 30.3811 55.006 30.8102 55.0328 31.1298C55.0842 31.7243 55.5692 32.0461 55.4597 32.6942C55.3703 33.2216 55.0015 33.6753 54.6753 34.0798C54.4212 34.3956 54.1464 34.6943 53.8528 34.9737C54.2471 34.7351 54.6719 34.5509 55.1155 34.4262C55.306 34.3553 55.5119 34.336 55.7122 34.3703C56.0005 34.4463 56.0162 34.6296 56.3827 34.5938C56.6553 34.5625 57.252 34.3703 57.3995 34.748C57.547 35.1257 56.9213 35.4989 56.6509 35.6509Z" fill="#FFC727"/>
<g style="mix-blend-mode:multiply" opacity="0.1">
<path d="M56.6509 35.6509C55.2742 36.4152 53.6271 36.6678 52.1812 37.26C51.8504 37.3941 51.5241 37.5438 51.2001 37.707C51.1008 37.761 50.9986 37.8095 50.8939 37.8522C50.8285 37.8776 50.7574 37.8845 50.6883 37.8723C50.6591 37.8682 50.631 37.8583 50.6056 37.8433C50.559 37.8168 50.5195 37.7794 50.4907 37.7342C50.4619 37.689 50.4446 37.6375 50.4402 37.584C50.4141 37.3604 50.4239 37.1341 50.4693 36.9136C50.4492 36.6767 50.4089 36.4398 50.3844 36.2297C50.3531 35.9213 50.3129 35.6174 50.2659 35.3112C50.1609 34.6631 49.9977 34.0284 49.8368 33.3915C49.6792 32.8562 49.6039 32.3001 49.6133 31.7422C49.6133 31.4449 49.6647 30.8907 49.9285 30.6962C50.1922 30.5018 50.3352 30.6806 50.4291 30.9019C50.5229 31.1231 50.5162 31.3488 50.5855 31.5544C50.6928 31.874 50.8827 31.9053 51.0928 32.1042C51.2181 32.2455 51.3118 32.4118 51.3677 32.5922C51.4236 32.7725 51.4403 32.9628 51.4169 33.1501C51.399 33.4518 51.3655 33.7557 51.3252 34.0552C51.4146 33.7848 51.5152 33.5166 51.618 33.2551C51.8035 32.7836 51.9867 32.1958 52.3399 31.8181C52.4518 31.6914 52.5918 31.5927 52.7488 31.5298C53.088 31.4369 53.3965 31.2557 53.6428 31.0047C53.8841 30.7365 54.197 30.2515 54.6239 30.3163C55.0507 30.3811 55.006 30.8102 55.0328 31.1298C55.0842 31.7243 55.5692 32.0461 55.4597 32.6942C55.3703 33.2216 55.0015 33.6753 54.6753 34.0798C54.4212 34.3956 54.1464 34.6943 53.8528 34.9737C54.2471 34.7351 54.6719 34.5509 55.1155 34.4262C55.306 34.3553 55.5119 34.336 55.7122 34.3703C56.0005 34.4463 56.0162 34.6296 56.3827 34.5938C56.6553 34.5625 57.252 34.3703 57.3995 34.748C57.547 35.1257 56.9213 35.4989 56.6509 35.6509Z" fill="#222221"/>
</g>
<path d="M50.3128 33.3647V33.3812C50.3269 33.3788 50.3222 33.3624 50.3128 33.3647Z" fill="#F1D1C5"/>
<path d="M55.5201 35.5996C54.1613 36.4667 51.8013 36.2991 50.8895 37.7741V37.8456C50.8241 37.8709 50.753 37.8779 50.6839 37.8657C50.4783 37.3517 50.5766 36.7773 50.5967 36.2276C50.6445 35.3967 50.5867 34.5632 50.4246 33.7469C50.4246 33.7245 50.4514 33.7178 50.4604 33.7469C50.6465 34.3761 50.7436 35.0283 50.7487 35.6845C50.7643 36.3549 50.5833 37.1572 50.7777 37.8098L50.7911 37.7428C50.7911 36.9896 51.0951 36.232 51.4035 35.5616C51.8013 34.6967 52.2974 33.8899 52.7779 33.0653C52.7958 33.0317 52.8427 33.0652 52.8248 33.0988C52.4136 33.91 51.9868 34.719 51.6024 35.5437C51.3533 36.0451 51.1521 36.5689 51.0012 37.1081C51.7521 35.356 53.797 34.3525 54.4339 32.5334C54.4369 32.5248 54.4432 32.5177 54.4513 32.5137C54.4595 32.5097 54.4689 32.5092 54.4775 32.5121C54.4861 32.5151 54.4932 32.5213 54.4972 32.5295C54.5011 32.5377 54.5017 32.5471 54.4987 32.5557C53.8551 34.4888 51.7856 35.5616 51.0101 37.4053C51.1344 37.2551 51.2788 37.1227 51.4392 37.012C51.7695 36.6853 52.146 36.4089 52.5567 36.1918C53.2271 35.8409 53.9601 35.6688 54.6083 35.2688C54.6328 35.2554 54.6574 35.2934 54.6373 35.3113C54.1389 35.7381 53.4864 35.899 52.8986 36.165C52.5453 36.3232 52.2103 36.5195 51.8996 36.7505C52.0896 36.6611 52.2843 36.582 52.4829 36.5136C53.4864 36.1583 54.5256 35.9929 55.4955 35.5392C55.5029 35.5381 55.5105 35.5395 55.517 35.5432C55.5236 35.547 55.5287 35.5528 55.5315 35.5597C55.5343 35.5667 55.5348 35.5744 55.5327 35.5816C55.5306 35.5889 55.5262 35.5952 55.5201 35.5996Z" fill="white"/>
<path d="M50.2191 32.3143C50.1802 32.5199 50.1933 32.7319 50.2571 32.9311C50.2583 32.934 50.2603 32.9365 50.2628 32.9383C50.2654 32.94 50.2685 32.941 50.2716 32.941C50.2747 32.941 50.2778 32.94 50.2804 32.9383C50.283 32.9365 50.285 32.934 50.2861 32.9311C50.2638 32.7314 50.2638 32.5297 50.2861 32.33C50.2772 32.2942 50.228 32.2808 50.2191 32.3143Z" fill="white"/>
<path d="M54.5479 31.8919C54.5233 32.0037 54.5256 32.1154 54.5055 32.2361C54.5055 32.2741 54.5524 32.2786 54.5658 32.2495C54.6186 32.1398 54.6358 32.0163 54.615 31.8964C54.606 31.8673 54.5546 31.8562 54.5479 31.8919Z" fill="white"/>
<path d="M56.0498 35.1772C55.9918 35.2074 55.9364 35.2425 55.8844 35.2822C55.8811 35.2858 55.8788 35.2902 55.8778 35.2949C55.8768 35.2997 55.8772 35.3047 55.8788 35.3092C55.8804 35.3138 55.8832 35.3179 55.887 35.321C55.8907 35.3241 55.8952 35.3262 55.9 35.3269C55.9729 35.3217 56.0413 35.2899 56.0922 35.2375C56.1213 35.2107 56.0878 35.1548 56.0498 35.1772Z" fill="white"/>
<path d="M50.2079 36.9627C50.2548 37.4857 50.3755 38.0466 50.1163 38.5629C50.0939 38.6076 50.1364 38.6478 50.1699 38.6143C50.4269 38.3372 52.1209 37.6734 52.0449 37.3873C51.998 37.213 51.5287 37.4298 51.4639 37.1884C51.4661 37.0456 51.4957 36.9045 51.551 36.7728C51.5868 36.6342 51.6181 36.4912 51.6404 36.3504C51.6628 36.2096 51.6583 36.0531 51.5443 36.004C51.4304 35.9548 51.265 36.1157 51.1756 36.2275C51.0862 36.3392 51.0325 36.4219 50.9633 36.5202C50.894 36.6186 50.78 36.8309 50.6817 36.6543C50.5833 36.4778 50.5677 36.3124 50.4358 36.1962C50.1364 35.9325 50.1878 36.8063 50.2079 36.9627Z" fill="#455A64"/>
<path d="M49.5889 43.8729C49.5241 43.7231 49.4503 43.5734 49.3654 43.4259C49.2987 43.3048 49.2241 43.1884 49.1419 43.0773C49.1419 42.9812 49.1575 42.8828 49.1665 42.7867C49.2157 42.2459 49.2849 41.7073 49.3788 41.1732C49.4034 41.0234 49.4324 40.8737 49.4615 40.7262C49.5285 40.3798 49.6045 40.0356 49.685 39.6915C49.799 39.1857 49.9778 38.6967 50.2169 38.2366C50.3016 38.081 50.3971 37.9317 50.5029 37.7896L50.5946 37.6734L50.6951 37.5527L50.78 37.4589L50.7935 37.4455C50.8003 37.4378 50.8099 37.4331 50.8201 37.4324C50.8304 37.4318 50.8405 37.4353 50.8482 37.4421C50.8559 37.4489 50.8606 37.4585 50.8612 37.4688C50.8619 37.4791 50.8584 37.4892 50.8516 37.4969L50.7711 37.5997C50.7527 37.6241 50.7355 37.6495 50.7197 37.6757C50.6907 37.7159 50.6616 37.7606 50.6325 37.803C50.6035 37.8455 50.6102 37.841 50.6013 37.8611C50.4756 38.0693 50.3708 38.2894 50.2884 38.5182C49.9822 39.3406 49.904 40.2703 49.7967 41.1151C49.7431 41.5337 49.6999 41.9517 49.6671 42.3688C49.6637 42.4038 49.6637 42.4389 49.6671 42.4739C49.6336 42.932 49.6045 43.4013 49.5889 43.8729Z" fill="#455A64"/>
<path d="M49.4726 41.2447C49.4726 41.2447 49.5352 39.4323 49.191 38.5138C48.8468 37.5952 47.7518 36.4108 47.7518 36.4108C47.5589 37.2968 47.6179 38.2192 47.922 39.0734C48.2261 39.9277 48.7632 40.6799 49.4726 41.2447Z" fill="#455A64"/>
<path d="M49.6336 42.4762C49.6336 42.4762 50.2929 40.7844 50.9745 40.0782C51.6561 39.372 53.1244 38.7104 53.1244 38.7104C52.9523 39.6015 52.5341 40.4266 51.9171 41.0921C51.3001 41.7577 50.5091 42.2371 49.6336 42.4762Z" fill="#455A64"/>
<g style="mix-blend-mode:multiply" opacity="0.1">
<path d="M43.3224 41.0749C44.0662 40.8983 44.8371 40.8665 45.593 40.981C46.3618 41.0909 47.1006 41.3546 47.7652 41.7565C48.0977 41.9631 48.4046 42.2084 48.6793 42.4873C48.9489 42.7697 49.1817 43.0851 49.3721 43.4259C49.7492 44.0967 49.957 44.8492 49.9777 45.6183C49.803 44.8978 49.5068 44.2123 49.1017 43.5913C48.7014 42.9871 48.1726 42.4788 47.5529 42.1029C47.3987 42.0068 47.2401 41.9219 47.0791 41.8347C46.9182 41.7476 46.7529 41.6783 46.5808 41.6113C46.2409 41.4761 45.8913 41.367 45.5349 41.285C44.8087 41.1249 44.0657 41.0544 43.3224 41.0749Z" fill="#222221"/>
<path d="M54.2106 43.2717C53.8116 43.1752 53.406 43.108 52.9971 43.0706C52.6012 43.0383 52.2028 43.0533 51.8104 43.1153C51.6162 43.1444 51.4243 43.187 51.236 43.2427C51.048 43.3049 50.8644 43.3795 50.6863 43.4662C50.3177 43.6465 49.9662 43.8596 49.6359 44.1031C49.8637 43.7375 50.1688 43.4262 50.5298 43.1913C50.712 43.0687 50.9068 42.966 51.1109 42.8851C51.3168 42.8102 51.5293 42.7548 51.7456 42.7197C52.1774 42.6524 52.6182 42.6683 53.044 42.7667C53.4634 42.8534 53.8604 43.0253 54.2106 43.2717Z" fill="#222221"/>
</g>
<path d="M17.3356 31.1701C18.1893 31.8674 19.2777 32.1467 20.3102 32.4574C20.6007 32.5445 20.8846 32.6361 21.1684 32.7367C21.3642 32.8256 21.5805 32.8596 21.7941 32.835C22.1651 32.7591 22.2009 32.4261 22.2054 32.1043C22.2132 32.0016 22.2132 31.8985 22.2054 31.7958V31.7266C22.2067 31.7198 22.2064 31.7128 22.2045 31.7062C22.2025 31.6996 22.199 31.6935 22.1942 31.6886C22.1942 31.5634 22.1741 31.4405 22.1651 31.3243C22.1115 30.6538 22.0512 29.9834 21.9931 29.3263C21.9723 28.7851 21.9042 28.2467 21.7897 27.7173C21.7405 27.5318 21.6869 27.2837 21.4992 27.1876C21.3892 27.1495 21.2773 27.1175 21.1639 27.0915C21.0671 27.05 20.9808 26.9874 20.9114 26.9082C20.7281 26.716 20.4018 26.135 20.0599 26.3205C19.8856 26.4166 19.8364 26.6401 19.7984 26.8144C19.7051 27.0365 19.5675 27.2373 19.3939 27.4044C19.1369 27.7396 19.2017 28.1709 19.3425 28.5397C19.5437 29.0179 19.8051 29.4685 20.1203 29.8806C20.4309 30.3141 20.7706 30.7254 21.0857 31.1567C21.2609 31.3938 21.4235 31.64 21.5729 31.8942C21.6467 32.0193 21.7137 32.1445 21.7763 32.2741C21.8257 32.3622 21.8639 32.456 21.8902 32.5535C21.5103 32.0801 21.0997 31.6321 20.6611 31.2126C20.2141 30.7656 19.8163 30.2359 19.3068 29.8471C18.9304 29.5425 18.4653 29.3684 17.9815 29.3509C17.7105 29.3649 17.4392 29.3324 17.1792 29.2548C16.9497 29.1587 16.7118 29.0839 16.4685 29.0313C15.9299 28.9554 16.1981 29.5901 16.3143 29.8471C16.5455 30.3626 16.8955 30.816 17.3356 31.1701Z" fill="#FFC727"/>
<g style="mix-blend-mode:multiply" opacity="0.3">
<path d="M17.3356 31.1701C18.1893 31.8674 19.2777 32.1467 20.3102 32.4574C20.6007 32.5445 20.8846 32.6361 21.1684 32.7367C21.3642 32.8256 21.5805 32.8596 21.7941 32.835C22.1651 32.7591 22.2009 32.4261 22.2054 32.1043C22.2132 32.0016 22.2132 31.8985 22.2054 31.7958V31.7266C22.2067 31.7198 22.2064 31.7128 22.2045 31.7062C22.2025 31.6996 22.199 31.6935 22.1942 31.6886C22.1942 31.5634 22.1741 31.4405 22.1651 31.3243C22.1115 30.6538 22.0512 29.9834 21.9931 29.3263C21.9723 28.7851 21.9042 28.2467 21.7897 27.7173C21.7405 27.5318 21.6869 27.2837 21.4992 27.1876C21.3892 27.1495 21.2773 27.1175 21.1639 27.0915C21.0671 27.05 20.9808 26.9874 20.9114 26.9082C20.7281 26.716 20.4018 26.135 20.0599 26.3205C19.8856 26.4166 19.8364 26.6401 19.7984 26.8144C19.7051 27.0365 19.5675 27.2373 19.3939 27.4044C19.1369 27.7396 19.2017 28.1709 19.3425 28.5397C19.5437 29.0179 19.8051 29.4685 20.1203 29.8806C20.4309 30.3141 20.7706 30.7254 21.0857 31.1567C21.2609 31.3938 21.4235 31.64 21.5729 31.8942C21.6467 32.0193 21.7137 32.1445 21.7763 32.2741C21.8257 32.3622 21.8639 32.456 21.8902 32.5535C21.5103 32.0801 21.0997 31.6321 20.6611 31.2126C20.2141 30.7656 19.8163 30.2359 19.3068 29.8471C18.9304 29.5425 18.4653 29.3684 17.9815 29.3509C17.7105 29.3649 17.4392 29.3324 17.1792 29.2548C16.9497 29.1587 16.7118 29.0839 16.4685 29.0313C15.9299 28.9554 16.1981 29.5901 16.3143 29.8471C16.5455 30.3626 16.8955 30.816 17.3356 31.1701Z" fill="#222221"/>
</g>
<path d="M21.6063 32.0215C21.7147 31.2895 21.7147 30.5455 21.6063 29.8135C21.3616 28.4046 20.8657 27.0512 20.1425 25.8176C20.0034 25.5427 19.8258 25.2891 19.615 25.0645C19.5212 24.9751 19.3111 24.8767 19.3178 25.0957C19.3599 25.3047 19.4818 25.4891 19.6575 25.6098C19.8523 25.7537 20.034 25.9145 20.2006 26.0903C20.319 26.3137 20.4241 26.5372 20.5403 26.7607C20.8137 27.325 21.046 27.9083 21.2353 28.5061C21.6126 29.6379 21.7347 30.8392 21.5929 32.0238L21.6063 32.0215Z" fill="#263238"/>
<path d="M21.4498 32.3478C20.7173 32.2395 20.0049 32.0233 19.3357 31.7064C18.0573 31.0657 16.9051 30.1996 15.9342 29.1498C15.7097 28.9391 15.5184 28.6957 15.3666 28.4279C15.3062 28.3139 15.2727 28.0837 15.4806 28.153C15.6884 28.2223 15.8002 28.4547 15.8761 28.6268C15.9559 28.8591 16.0569 29.0835 16.1778 29.2973C16.3544 29.4738 16.5332 29.6459 16.7187 29.8157C17.18 30.2404 17.6714 30.631 18.1892 30.9846C19.1632 31.6728 20.2775 32.1369 21.4521 32.3433C21.4521 32.3433 21.461 32.3501 21.4498 32.3478Z" fill="#263238"/>
<path d="M17.7827 27.4491C18.1671 27.9616 18.5649 28.463 18.9761 28.9531C19.7964 29.9254 20.6669 30.8541 21.5841 31.7355C21.5841 31.7355 21.602 31.7355 21.5841 31.7221C20.6902 30.8282 19.8432 29.8739 19.0342 28.904C18.6289 28.4198 18.2371 27.9266 17.8587 27.4245C17.7827 27.3195 17.7044 27.2167 17.6352 27.1094C17.5078 26.7764 17.4117 26.468 17.2597 26.1439C17.1837 25.992 17.0027 25.6389 16.8306 25.764C16.6138 25.9294 17.4072 26.9418 17.7827 27.4491Z" fill="#263238"/>
<path d="M16.0663 31.1231C16.309 31.4962 16.6154 31.8237 16.9714 32.0908C17.7344 32.6652 18.6055 33.0795 19.5325 33.3088C20.4146 33.5726 21.3436 33.6404 22.2546 33.5077H22.2881C22.2913 33.5102 22.2952 33.5116 22.2993 33.5116C22.3033 33.5116 22.3073 33.5102 22.3105 33.5077C22.3344 33.5043 22.3577 33.4975 22.3797 33.4876C22.3797 33.4876 22.4669 33.4719 22.4468 33.463C22.4847 33.4107 22.5258 33.3607 22.5697 33.3133C22.7315 33.1323 22.8766 32.9371 23.0033 32.73C23.1385 32.4577 23.2269 32.1645 23.2647 31.8628C23.3653 31.1723 23.2647 30.4683 23.3497 29.7755C23.4145 29.1721 23.6424 28.5955 23.6223 27.9876C23.6223 27.8535 23.6 27.6368 23.4122 27.6725C23.1731 27.7194 23.1396 28.0502 22.9831 28.1888C22.972 28.2245 22.9429 28.2357 22.9005 28.2223C22.8468 28.2491 22.8133 28.2335 22.7977 28.1731C22.7758 28.1379 22.7578 28.1005 22.744 28.0614C22.7092 27.9803 22.6786 27.8975 22.6524 27.8133C22.6032 27.6658 22.5652 27.5138 22.525 27.3663C22.4836 27.0938 22.3812 26.834 22.2255 26.6065C22.202 26.5741 22.1702 26.5485 22.1334 26.5326C22.0967 26.5167 22.0563 26.5109 22.0165 26.5159C21.9768 26.521 21.9391 26.5366 21.9075 26.5612C21.8758 26.5857 21.8514 26.6184 21.8367 26.6557C21.75 26.9029 21.7187 27.1661 21.745 27.4267C21.745 27.6077 21.707 27.8737 21.4612 27.8178C21.3606 27.7977 21.269 27.7373 21.1685 27.7172C21.0783 27.7019 20.9857 27.7188 20.9068 27.765C20.828 27.8112 20.7679 27.8837 20.7371 27.9698C20.6321 28.2245 20.7215 28.5486 20.7751 28.8078C20.8496 29.1411 20.9444 29.4695 21.0589 29.7912C21.2824 30.4035 21.7741 31.5611 22.0289 32.1579C22.1674 32.4864 20.612 29.0961 20.0175 28.4122C19.8719 28.2736 19.6799 28.1939 19.4789 28.1888C19.3493 28.1888 19.2286 28.2402 19.099 28.2379C18.9662 28.2262 18.837 28.1882 18.7191 28.1262C18.3972 27.9832 17.8475 27.8133 17.7581 28.3117C17.7156 28.5352 17.8207 28.7587 17.8251 28.9821C17.7955 29.1951 17.7241 29.4002 17.615 29.5855C17.4296 30.0616 17.8743 30.4795 18.1849 30.7968C18.5714 31.1892 18.9917 31.5466 19.4409 31.8651C19.718 32.0662 20.7818 32.759 21.0701 32.9378C20.7014 32.7501 19.5594 32.0439 19.1996 31.8338C18.9627 31.6975 18.7302 31.5544 18.5023 31.4069C18.2743 31.2594 18.0933 31.1119 17.8765 30.9935C17.7008 30.9065 17.504 30.8708 17.3089 30.8907C17.0435 30.8663 16.7809 30.8177 16.5244 30.7454C16.3859 30.7231 16.1289 30.6359 16.0283 30.7767C15.9434 30.8661 15.9948 31.0225 16.0663 31.1231Z" fill="#FFC727"/>
<g style="mix-blend-mode:multiply" opacity="0.09">
<path d="M16.0663 31.1231C16.309 31.4962 16.6154 31.8237 16.9714 32.0908C17.7344 32.6652 18.6055 33.0795 19.5325 33.3088C20.4146 33.5726 21.3436 33.6404 22.2546 33.5077H22.2881C22.2913 33.5102 22.2952 33.5116 22.2993 33.5116C22.3033 33.5116 22.3073 33.5102 22.3105 33.5077C22.3344 33.5043 22.3577 33.4975 22.3797 33.4876C22.3797 33.4876 22.4669 33.4719 22.4468 33.463C22.4847 33.4107 22.5258 33.3607 22.5697 33.3133C22.7315 33.1323 22.8766 32.9371 23.0033 32.73C23.1385 32.4577 23.2269 32.1645 23.2647 31.8628C23.3653 31.1723 23.2647 30.4683 23.3497 29.7755C23.4145 29.1721 23.6424 28.5955 23.6223 27.9876C23.6223 27.8535 23.6 27.6368 23.4122 27.6725C23.1731 27.7194 23.1396 28.0502 22.9831 28.1888C22.972 28.2245 22.9429 28.2357 22.9005 28.2223C22.8468 28.2491 22.8133 28.2335 22.7977 28.1731C22.7758 28.1379 22.7578 28.1005 22.744 28.0614C22.7092 27.9803 22.6786 27.8975 22.6524 27.8133C22.6032 27.6658 22.5652 27.5138 22.525 27.3663C22.4836 27.0938 22.3812 26.834 22.2255 26.6065C22.202 26.5741 22.1702 26.5485 22.1334 26.5326C22.0967 26.5167 22.0563 26.5109 22.0165 26.5159C21.9768 26.521 21.9391 26.5366 21.9075 26.5612C21.8758 26.5857 21.8514 26.6184 21.8367 26.6557C21.75 26.9029 21.7187 27.1661 21.745 27.4267C21.745 27.6077 21.707 27.8737 21.4612 27.8178C21.3606 27.7977 21.269 27.7373 21.1685 27.7172C21.0783 27.7019 20.9857 27.7188 20.9068 27.765C20.828 27.8112 20.7679 27.8837 20.7371 27.9698C20.6321 28.2245 20.7215 28.5486 20.7751 28.8078C20.8496 29.1411 20.9444 29.4695 21.0589 29.7912C21.2824 30.4035 21.7741 31.5611 22.0289 32.1579C22.1674 32.4864 20.612 29.0961 20.0175 28.4122C19.8719 28.2736 19.6799 28.1939 19.4789 28.1888C19.3493 28.1888 19.2286 28.2402 19.099 28.2379C18.9662 28.2262 18.837 28.1882 18.7191 28.1262C18.3972 27.9832 17.8475 27.8133 17.7581 28.3117C17.7156 28.5352 17.8207 28.7587 17.8251 28.9821C17.7955 29.1951 17.7241 29.4002 17.615 29.5855C17.4296 30.0616 17.8743 30.4795 18.1849 30.7968C18.5714 31.1892 18.9917 31.5466 19.4409 31.8651C19.718 32.0662 20.7818 32.759 21.0701 32.9378C20.7014 32.7501 19.5594 32.0439 19.1996 31.8338C18.9627 31.6975 18.7302 31.5544 18.5023 31.4069C18.2743 31.2594 18.0933 31.1119 17.8765 30.9935C17.7008 30.9065 17.504 30.8708 17.3089 30.8907C17.0435 30.8663 16.7809 30.8177 16.5244 30.7454C16.3859 30.7231 16.1289 30.6359 16.0283 30.7767C15.9434 30.8661 15.9948 31.0225 16.0663 31.1231Z" fill="#222221"/>
</g>
<path d="M17.8117 32.2115C19.1303 33.0176 20.636 33.4666 22.1808 33.5144C22.1835 33.516 22.1866 33.5168 22.1897 33.5168C22.1929 33.5168 22.1959 33.516 22.1987 33.5144H22.2545H22.2881C22.2912 33.517 22.2952 33.5184 22.2992 33.5184C22.3033 33.5184 22.3072 33.517 22.3104 33.5144C22.3343 33.5111 22.3577 33.5043 22.3797 33.4943C22.3797 33.4943 22.4668 33.4787 22.4467 33.4697C22.4847 33.4174 22.5257 33.3674 22.5696 33.32C22.8576 32.79 23.0067 32.1957 23.0032 31.5925C22.9831 31.2058 22.8982 30.8215 22.8624 30.4326C22.8248 30.0374 22.8173 29.64 22.8401 29.2437C22.8088 29.6279 22.7998 30.0137 22.8132 30.3991C22.8289 30.7678 22.8915 31.1321 22.9183 31.4986C22.9697 32.1847 22.7104 32.7568 22.4713 33.3625C22.5946 32.8219 22.6323 32.2654 22.5831 31.7132C22.4977 31.0467 22.3617 30.3878 22.1763 29.742C22.1763 29.7241 22.1473 29.7286 22.1517 29.742C22.2746 30.3946 22.4467 31.0472 22.516 31.7065C22.5733 32.2733 22.5416 32.8456 22.4221 33.4027C21.8858 32.7524 21.4567 32.026 20.9896 31.3288C20.5381 30.6517 20.0377 30.0086 19.4923 29.4046C19.4923 29.4046 19.4677 29.4046 19.4766 29.4202C20.0326 30.0673 20.5413 30.7537 20.9985 31.474C21.3962 32.1456 21.8445 32.7858 22.3395 33.3893C21.7839 33.0196 21.2692 32.5918 20.8041 32.1132C20.3259 31.588 19.8655 31.0449 19.4096 30.4996C19.8565 31.0762 20.3035 31.664 20.8019 32.2071C21.2713 32.6977 21.8051 33.1225 22.3886 33.4697C20.9114 33.4161 19.5504 32.6116 18.3078 31.8316C19.2777 32.4507 20.2722 33.0898 21.3695 33.3669C20.8664 33.3113 20.3686 33.2149 19.8811 33.0786C19.1682 32.8659 18.4843 32.5656 17.8452 32.1847L17.8117 32.2115Z" fill="white"/>
<path d="M22.1226 28.0971C22.1226 28.077 22.1561 28.077 22.1538 28.0971C22.1337 28.4887 22.1337 28.8811 22.1538 29.2726C22.1524 29.2771 22.1495 29.281 22.1457 29.2838C22.1419 29.2865 22.1373 29.288 22.1326 29.288C22.1279 29.288 22.1233 29.2865 22.1195 29.2838C22.1157 29.281 22.1129 29.2771 22.1114 29.2726C22.0477 28.8831 22.0514 28.4854 22.1226 28.0971Z" fill="white"/>
<path d="M18.6987 29.6817C18.8026 29.7607 18.8991 29.8489 18.987 29.9454C18.987 29.9588 18.987 29.9834 18.9647 29.9722C18.862 29.8893 18.767 29.7973 18.6808 29.6973C18.6764 29.6862 18.6764 29.6705 18.6987 29.6817Z" fill="white"/>
<path d="M17.8361 31.5566L17.9925 31.6639C18.0149 31.6773 17.9925 31.7108 17.9746 31.6952L17.8249 31.579C17.8115 31.5745 17.8227 31.5566 17.8361 31.5566Z" fill="white"/>
<path d="M21.6823 33.7916C22.1493 33.9636 22.6946 34.0776 22.9718 34.5358C22.9767 34.5439 22.9843 34.5499 22.9933 34.553C23.0023 34.556 23.012 34.5557 23.0209 34.5523C23.0297 34.5488 23.037 34.5423 23.0415 34.534C23.046 34.5256 23.0474 34.516 23.0455 34.5067C22.9695 34.1491 23.4299 32.2719 23.1416 32.2316C22.9673 32.2048 22.869 32.7367 22.6254 32.6987C22.5226 32.6831 22.4019 32.5155 22.3281 32.4462C22.2338 32.3522 22.1338 32.2642 22.0287 32.1825C21.9303 32.1087 21.7873 32.0417 21.6778 32.1311C21.5683 32.2205 21.604 32.4395 21.6443 32.578C21.6845 32.7166 21.7225 32.8015 21.7627 32.8976C21.8029 32.9937 21.9147 33.1993 21.7068 33.2194C21.5276 33.2041 21.347 33.2192 21.1727 33.2641C20.7727 33.4317 21.5415 33.7335 21.6823 33.7916Z" fill="#455A64"/>
<path d="M26.6168 39.9597H26.5989L26.2793 39.9128C26.2212 39.9128 26.1608 39.9128 26.1027 39.9128C26.0201 39.6893 25.9284 39.4926 25.8301 39.2893C25.7787 39.1775 25.7228 39.0658 25.6669 38.954C25.4792 38.5875 25.2766 38.2329 25.0591 37.8903C24.3573 36.7728 23.6154 35.7046 22.9985 34.5581C22.8034 34.1961 22.6231 33.8236 22.4577 33.4407C22.4443 33.4139 22.4354 33.387 22.4242 33.3625C22.3795 33.253 22.3326 33.139 22.2901 33.0272C22.2901 33.0004 22.3214 32.9825 22.3348 33.0094C22.3683 33.092 22.4041 33.1725 22.4443 33.2552C22.4443 33.2775 22.4644 33.2999 22.4734 33.32C22.4734 33.32 22.4912 33.3602 22.5024 33.3803C22.6615 33.7116 22.8399 34.0332 23.0365 34.3436C23.5684 35.2017 24.2054 36.0041 24.8088 36.8242C24.8535 36.8846 24.8982 36.9449 24.9406 37.0075C25.333 37.5318 25.6906 38.0813 26.0111 38.6523C26.244 39.0731 26.4464 39.51 26.6168 39.9597Z" fill="#455A64"/>
<path d="M26.018 39.249C26.018 39.249 24.6771 38.0198 23.7608 37.6846C22.8445 37.3494 21.2287 37.4052 21.2287 37.4052C21.7755 38.1287 22.5139 38.6848 23.3602 39.0107C24.2066 39.3365 25.1272 39.419 26.018 39.249Z" fill="#455A64"/>
<path d="M24.8558 37.1036C24.8558 37.1036 24.5429 35.3157 24.7575 34.3614C24.972 33.4071 25.8883 32.0774 25.8883 32.0774C26.2029 32.928 26.273 33.8497 26.0905 34.7381C25.908 35.6264 25.4803 36.4459 24.8558 37.1036Z" fill="#455A64"/>
<path d="M26.0716 25.8042C26.3577 25.735 26.5477 26.3361 26.5991 26.5216C26.7162 27.0151 26.6561 27.5341 26.4292 27.9877C26.4203 28.0228 26.4051 28.0561 26.3845 28.086C26.3845 28.086 26.3845 28.086 26.3845 28.0994L26.3555 28.1285C26.3424 28.1403 26.3264 28.1485 26.3091 28.152C26.2918 28.1556 26.2738 28.1544 26.2571 28.1486C25.8884 27.9877 25.9063 27.4603 25.9107 27.134C25.9018 26.9328 25.7342 25.8869 26.0716 25.8042Z" fill="#FFC727"/>
<g style="mix-blend-mode:multiply" opacity="0.2">
<path d="M26.0716 25.8042C26.3577 25.735 26.5477 26.3361 26.5991 26.5216C26.7162 27.0151 26.6561 27.5341 26.4292 27.9877C26.4203 28.0228 26.4051 28.0561 26.3845 28.086C26.3845 28.086 26.3845 28.086 26.3845 28.0994L26.3555 28.1285C26.3424 28.1403 26.3264 28.1485 26.3091 28.152C26.2918 28.1556 26.2738 28.1544 26.2571 28.1486C25.8884 27.9877 25.9063 27.4603 25.9107 27.134C25.9018 26.9328 25.7342 25.8869 26.0716 25.8042Z" fill="#222221"/>
</g>
<path d="M24.1631 28.9956C23.9888 29.485 24.3151 29.9588 24.6101 30.3074C24.724 30.4415 25.0704 30.8215 25.2179 30.627C25.2295 30.6291 25.2413 30.6269 25.2513 30.6207C25.2612 30.6145 25.2684 30.6048 25.2716 30.5935C25.3162 30.3973 25.2934 30.1918 25.2068 30.0102C25.0928 29.7018 24.9833 29.3822 24.838 29.0827C24.6928 28.7833 24.3195 28.5665 24.1631 28.9956Z" fill="#FFC727"/>
<g style="mix-blend-mode:multiply" opacity="0.2">
<path d="M24.1631 28.9956C23.9888 29.485 24.3151 29.9588 24.6101 30.3074C24.724 30.4415 25.0704 30.8215 25.2179 30.627C25.2295 30.6291 25.2413 30.6269 25.2513 30.6207C25.2612 30.6145 25.2684 30.6048 25.2716 30.5935C25.3162 30.3973 25.2934 30.1918 25.2068 30.0102C25.0928 29.7018 24.9833 29.3822 24.838 29.0827C24.6928 28.7833 24.3195 28.5665 24.1631 28.9956Z" fill="#222221"/>
</g>
<path d="M30.0093 34.1626C29.8298 34.8871 29.4118 35.5303 28.8225 35.9885C28.8512 36.7425 28.7897 37.4973 28.6393 38.2367C28.5499 38.3015 28.4672 38.373 28.3868 38.4445C28.427 38.2523 28.4605 38.0624 28.4896 37.868C28.4903 37.862 28.4903 37.856 28.4896 37.8501C27.2805 37.2131 26.7397 35.9817 26.286 34.7369C26.3218 34.7369 28.199 35.5236 28.5454 37.535C28.6516 36.5825 28.6268 35.6201 28.4717 34.6744C27.9621 33.186 26.6838 32.1244 25.4457 31.1455C25.2209 30.9965 25.0311 30.8006 24.8892 30.5712C24.8799 30.5557 24.8724 30.5392 24.8669 30.522C24.8177 30.4036 24.7574 30.1466 24.916 30.0751C25.0747 30.0035 25.2021 30.2024 25.2803 30.3119C25.2928 30.3282 25.304 30.3454 25.3138 30.3633C25.5373 30.6718 25.7362 30.9958 25.9329 31.3176C26.4006 31.667 26.8421 32.0501 27.2537 32.4641C27.6805 32.8941 28.0399 33.3861 28.3197 33.9235C28.2996 33.843 28.2839 33.7625 28.2638 33.6799C27.9525 32.5349 27.5022 31.4324 26.9229 30.3969C26.6644 29.9528 26.4402 29.4896 26.2525 29.0113C26.1201 28.6741 26.0482 28.3163 26.0402 27.9542C26.043 27.8669 26.058 27.7803 26.0849 27.6972C26.1452 27.5117 26.3083 27.4268 26.4357 27.6123C26.4812 27.6883 26.508 27.7741 26.514 27.8626C26.5318 28.0346 26.514 28.2268 26.514 28.3542C26.5341 28.6827 26.5497 29.0135 26.5609 29.3443C26.6682 29.5677 26.7844 29.7711 26.9051 29.9812C27.5755 31.0824 28.1013 32.2655 28.4694 33.5011C28.6156 34.0346 28.721 34.5785 28.7846 35.128C28.8324 34.6952 28.9154 34.2669 29.0326 33.8475C29.2047 33.2239 29.9377 32.1378 29.9444 32.1333C30.1425 32.7925 30.1649 33.4921 30.0093 34.1626Z" fill="#455A64"/>
<g style="mix-blend-mode:multiply" opacity="0.1">
<path d="M21.649 43.4237C21.8062 42.5994 22.2191 41.8456 22.829 41.2693C23.2791 40.8276 23.8103 40.477 24.3934 40.2368L24.6839 40.1161L24.9923 40.0245C25.4073 39.9096 25.8397 39.871 26.2684 39.9105L26.588 39.9552C26.693 39.9709 26.7958 40.0066 26.8986 40.0312L27.0529 40.0737L27.2026 40.1295C27.2987 40.1698 27.4015 40.2033 27.4954 40.2524C28.2485 40.6138 28.8918 41.1692 29.3592 41.8615C28.7891 41.2958 28.1133 40.8477 27.3702 40.543C26.6474 40.2545 25.8502 40.2098 25.0996 40.4156C24.3405 40.6267 23.6351 40.9969 23.0301 41.5017C22.4183 42.0187 21.9438 42.6789 21.649 43.4237Z" fill="#222221"/>
<path d="M33.1226 37.7896C32.5479 37.7056 31.9658 37.6824 31.3862 37.7203C30.8214 37.7545 30.2651 37.8751 29.7369 38.0779C29.2132 38.288 28.7317 38.5908 28.3155 38.9718C27.8955 39.3733 27.5249 39.8235 27.2115 40.3127C27.389 39.7345 27.6885 39.201 28.0898 38.7484C28.2953 38.5209 28.5254 38.3171 28.7759 38.1405C29.0312 37.9694 29.303 37.8242 29.5871 37.7069C30.7335 37.282 31.9993 37.314 33.1226 37.7963V37.7896Z" fill="#222221"/>
<path d="M19.5705 40.5117C19.8302 40.3212 20.1325 40.1969 20.4511 40.1496C20.7761 40.093 21.1096 40.109 21.4277 40.1966C21.7478 40.281 22.0429 40.4412 22.2881 40.6636C22.4105 40.7698 22.5193 40.8907 22.6121 41.0235C22.6996 41.1555 22.7744 41.2954 22.8356 41.4414C22.6993 41.352 22.5898 41.2469 22.4646 41.162C22.3461 41.0744 22.223 40.9931 22.0959 40.9184C21.8527 40.7721 21.5902 40.6607 21.3159 40.5877C21.0396 40.5124 20.7552 40.4711 20.4689 40.4647C20.1687 40.46 19.8686 40.4756 19.5705 40.5117Z" fill="#222221"/>
</g>
<g style="mix-blend-mode:multiply" opacity="0.1">
<path d="M33.3348 47.8889C33.8006 47.6026 34.3149 47.4041 34.8523 47.3034C35.3954 47.1958 35.9523 47.1761 36.5016 47.2453C36.7757 47.2837 37.0468 47.3412 37.3129 47.4173C37.576 47.5045 37.8316 47.6129 38.0772 47.7414C38.5627 47.9943 38.9963 48.3362 39.3555 48.7493C38.9069 48.4694 38.4351 48.2287 37.9453 48.0297C37.7044 47.9349 37.4582 47.8543 37.2078 47.7883C36.9584 47.7259 36.7054 47.6789 36.4502 47.6475C35.9359 47.5812 35.4158 47.5707 34.8992 47.6162C34.3711 47.6638 33.8479 47.755 33.3348 47.8889Z" fill="#222221"/>
<path d="M37.4626 50.9998C37.7689 50.1287 38.3189 49.3639 39.0471 48.7962C39.7825 48.2172 40.6573 47.8418 41.5837 47.7079C42.5104 47.5548 43.4615 47.6687 44.3258 48.0364C44.7519 48.2223 45.145 48.4759 45.4902 48.7873C45.8342 49.0892 46.1224 49.4493 46.3416 49.8511C46.0598 49.5041 45.7311 49.198 45.365 48.9415C45.0092 48.685 44.6196 48.4789 44.2074 48.3292C43.799 48.1831 43.3727 48.0929 42.9402 48.061C42.8327 48.0479 42.7244 48.0427 42.6162 48.0453H42.2921C42.0686 48.0699 41.8585 48.0789 41.644 48.1146L41.3222 48.1705C41.2685 48.1705 41.2149 48.1884 41.1613 48.2018L41.0048 48.2442L40.6919 48.3314C40.5891 48.3671 40.4886 48.4096 40.3858 48.4454C40.1825 48.522 39.984 48.6108 39.7913 48.7113C39.6058 48.8253 39.4092 48.9236 39.2348 49.0532C38.5051 49.5604 37.8993 50.2258 37.4626 50.9998Z" fill="#222221"/>
<path d="M46.3416 49.8466C46.0598 49.4996 45.7311 49.1935 45.365 48.937C45.0097 48.6803 44.62 48.4749 44.2074 48.3269C43.8001 48.1793 43.3745 48.0883 42.9424 48.0565C42.8342 48.0435 42.7251 48.0383 42.6162 48.0408H42.2921C42.0686 48.0654 41.8585 48.0699 41.644 48.1079L41.3222 48.1637C41.2685 48.1637 41.2149 48.1816 41.1613 48.195L41.0048 48.2397L40.6897 48.3269C40.5891 48.3582 40.4886 48.4029 40.3858 48.4409C40.2107 48.5028 40.0404 48.5775 39.8762 48.6643L39.7913 48.7046L39.5879 48.8208C39.4665 48.8892 39.3487 48.9638 39.2348 49.0443C38.5046 49.5527 37.8987 50.2197 37.4626 50.9953C37.7682 50.1245 38.3183 49.3602 39.0471 48.794C39.1763 48.6858 39.3122 48.5858 39.4538 48.4945C39.5432 48.4386 39.6349 48.3827 39.7265 48.3313C40.3047 48.0168 40.933 47.8051 41.5837 47.7056C42.5101 47.5502 43.4617 47.6634 44.3258 48.0319C44.751 48.2181 45.1434 48.4717 45.4879 48.7828C45.8331 49.0842 46.1222 49.4443 46.3416 49.8466Z" fill="#222221"/>
</g>
<path d="M34.2399 41.7766C34.7354 42.191 35.258 42.5718 35.8043 42.9164C36.06 43.1004 36.3298 43.2641 36.6111 43.4058C36.7675 43.4805 36.9432 43.5047 37.1139 43.4751C37.2074 43.4749 37.2975 43.4399 37.3665 43.3768C37.3821 43.3639 37.3937 43.3468 37.4 43.3276C37.6905 43.1444 37.8291 42.798 37.9654 42.4761C38.239 41.8346 38.4457 41.1666 38.5822 40.4827C38.6314 40.2346 38.7342 39.915 38.6627 39.6602C38.6157 39.506 38.5331 39.477 38.4392 39.3764C38.2157 39.1418 38.2448 38.8937 38.0973 38.6233C38.0661 38.5477 38.0149 38.4821 37.9491 38.4337C37.8833 38.3852 37.8054 38.3557 37.724 38.3484C37.3106 38.3484 37.2145 39.144 37.1407 39.4233C36.9862 40.0018 36.8815 40.5925 36.8279 41.1889C36.7678 41.7261 36.7558 42.2676 36.7921 42.8069C36.3979 41.9032 35.8755 41.0609 35.2411 40.3061C35.0176 40.0335 34.6556 39.5865 34.2466 39.6535C34.0812 39.6804 34.0768 39.801 33.9606 39.877C33.7147 40.0156 33.5136 39.7921 33.2722 39.8658C32.3671 40.1273 33.9807 41.5621 34.2399 41.7766Z" fill="#FFC727"/>
<g style="mix-blend-mode:multiply" opacity="0.3">
<path d="M34.2399 41.7766C34.7354 42.191 35.258 42.5718 35.8043 42.9164C36.06 43.1004 36.3298 43.2641 36.6111 43.4058C36.7675 43.4805 36.9432 43.5047 37.1139 43.4751C37.2074 43.4749 37.2975 43.4399 37.3665 43.3768C37.3821 43.3639 37.3937 43.3468 37.4 43.3276C37.6905 43.1444 37.8291 42.798 37.9654 42.4761C38.239 41.8346 38.4457 41.1666 38.5822 40.4827C38.6314 40.2346 38.7342 39.915 38.6627 39.6602C38.6157 39.506 38.5331 39.477 38.4392 39.3764C38.2157 39.1418 38.2448 38.8937 38.0973 38.6233C38.0661 38.5477 38.0149 38.4821 37.9491 38.4337C37.8833 38.3852 37.8054 38.3557 37.724 38.3484C37.3106 38.3484 37.2145 39.144 37.1407 39.4233C36.9862 40.0018 36.8815 40.5925 36.8279 41.1889C36.7678 41.7261 36.7558 42.2676 36.7921 42.8069C36.3979 41.9032 35.8755 41.0609 35.2411 40.3061C35.0176 40.0335 34.6556 39.5865 34.2466 39.6535C34.0812 39.6804 34.0768 39.801 33.9606 39.877C33.7147 40.0156 33.5136 39.7921 33.2722 39.8658C32.3671 40.1273 33.9807 41.5621 34.2399 41.7766Z" fill="#222221"/>
</g>
<path d="M35.3597 38.8937C35.7441 40.2056 36.2067 41.4928 36.5687 42.8114C36.5799 42.8427 36.6358 42.8293 36.6268 42.798C36.3743 41.6023 35.9564 40.4559 35.5921 39.2915C35.3967 38.7177 35.2743 38.1215 35.2278 37.517C35.2077 37.1058 35.2479 36.7371 35.0267 36.384C35.0182 36.3686 35.0057 36.3558 34.9906 36.3469C34.9754 36.338 34.9582 36.3333 34.9406 36.3333C34.9231 36.3333 34.9058 36.338 34.8907 36.3469C34.8756 36.3558 34.8631 36.3686 34.8546 36.384C34.6311 36.746 34.982 37.3718 35.1608 37.7763C35.1882 38.1546 35.2549 38.5291 35.3597 38.8937Z" fill="#263238"/>
<path d="M37.7555 39.1552C37.9924 40.3396 37.8762 41.5621 37.8091 42.7577C37.8091 42.7637 37.8115 42.7693 37.8157 42.7735C37.8199 42.7777 37.8255 42.7801 37.8315 42.7801C37.8374 42.7801 37.8431 42.7777 37.8473 42.7735C37.8515 42.7693 37.8538 42.7637 37.8538 42.7577C38.1175 41.1933 38.0483 39.4055 37.4672 37.9171C37.4158 37.7852 37.0649 36.965 36.828 37.1751C36.7029 37.2891 36.8928 37.5416 36.9532 37.6221C37.177 37.8887 37.3866 38.167 37.5812 38.4557C37.6594 38.7082 37.713 38.9317 37.7555 39.1552Z" fill="#263238"/>
<path d="M33.3213 38.7573C33.3375 39.3067 33.4596 39.8477 33.6811 40.3507C34.1522 41.4155 34.8246 42.3792 35.6612 43.189C35.679 43.2069 35.7126 43.1756 35.6947 43.1555C34.9393 42.2906 34.1996 41.3966 33.7638 40.3195C33.6482 40.0405 33.5577 39.7518 33.4934 39.4568C33.4934 39.4367 33.4822 39.4121 33.4755 39.3875C33.4688 39.3629 33.4755 39.3875 33.4755 39.3719C33.4914 39.0407 33.5446 38.7123 33.6342 38.393C33.6722 38.2433 33.7258 37.984 33.6141 37.946C33.3347 37.9773 33.3235 38.5584 33.3213 38.7573Z" fill="#263238"/>
<path d="M33.2163 42.5632C34.2756 43.4214 35.6411 43.8863 36.792 44.6081C37.0535 44.7735 37.3083 44.95 37.5608 45.1311C37.637 45.1932 37.7169 45.2506 37.7999 45.3031C37.8517 45.3347 37.9114 45.351 37.972 45.3501C37.9979 45.3519 38.0238 45.3481 38.048 45.3389C38.0912 45.3226 38.1299 45.2962 38.161 45.262C38.1921 45.2279 38.2146 45.1868 38.2268 45.1422C38.2832 44.9577 38.3088 44.7652 38.3028 44.5724C38.3564 44.3735 38.4257 44.1768 38.4771 44.0025C38.5516 43.7447 38.6321 43.4899 38.7185 43.2382C38.904 42.6996 39.1386 42.1855 39.3733 41.6738C39.5901 41.2413 39.7407 40.7787 39.8202 40.3016C39.8538 40.0468 39.9029 39.5685 39.7085 39.3629C39.5141 39.1573 39.3621 39.2892 39.2615 39.4613C39.161 39.6333 39.1207 39.8278 39.038 39.9954C38.8995 40.2524 38.7341 40.2502 38.524 40.3887C38.3961 40.4903 38.2913 40.618 38.2165 40.7633C38.1418 40.9086 38.0988 41.0681 38.0905 41.2313C38.0592 41.4905 38.0435 41.7542 38.0324 42.0157C37.9966 41.7699 37.9519 41.5285 37.9027 41.2894C37.8156 40.8603 37.7485 40.3306 37.5049 39.9485C37.4285 39.8244 37.3245 39.7196 37.201 39.6423C36.9306 39.5105 36.6994 39.3102 36.5306 39.0612C36.3629 38.7953 36.1707 38.3349 35.7975 38.326C35.4243 38.317 35.3975 38.6902 35.326 38.9584C35.1919 39.4568 34.7293 39.6579 34.727 40.2256C34.727 40.6882 34.9684 41.1307 35.1852 41.524C35.3544 41.8343 35.544 42.1329 35.7528 42.418C35.4521 42.1555 35.1177 41.9346 34.7583 41.7609C34.6068 41.6709 34.434 41.6231 34.2577 41.6224C34.0007 41.6447 33.9582 41.7989 33.6543 41.7073C33.4308 41.6402 32.9481 41.3788 32.7604 41.6849C32.5726 41.9911 33.0084 42.3934 33.2163 42.5632Z" fill="#FFC727"/>
<g style="mix-blend-mode:multiply" opacity="0.1">
<path d="M33.2163 42.5632C34.2756 43.4214 35.6411 43.8863 36.792 44.6081C37.0535 44.7735 37.3083 44.95 37.5608 45.1311C37.637 45.1932 37.7169 45.2506 37.7999 45.3031C37.8517 45.3347 37.9114 45.351 37.972 45.3501C37.9979 45.3519 38.0238 45.3481 38.048 45.3389C38.0912 45.3226 38.1299 45.2962 38.161 45.262C38.1921 45.2279 38.2146 45.1868 38.2268 45.1422C38.2832 44.9577 38.3088 44.7652 38.3028 44.5724C38.3564 44.3735 38.4257 44.1768 38.4771 44.0025C38.5516 43.7447 38.6321 43.4899 38.7185 43.2382C38.904 42.6996 39.1386 42.1855 39.3733 41.6738C39.5901 41.2413 39.7407 40.7787 39.8202 40.3016C39.8538 40.0468 39.9029 39.5685 39.7085 39.3629C39.5141 39.1573 39.3621 39.2892 39.2615 39.4613C39.161 39.6333 39.1207 39.8278 39.038 39.9954C38.8995 40.2524 38.7341 40.2502 38.524 40.3887C38.3961 40.4903 38.2913 40.618 38.2165 40.7633C38.1418 40.9086 38.0988 41.0681 38.0905 41.2313C38.0592 41.4905 38.0435 41.7542 38.0324 42.0157C37.9966 41.7699 37.9519 41.5285 37.9027 41.2894C37.8156 40.8603 37.7485 40.3306 37.5049 39.9485C37.4285 39.8244 37.3245 39.7196 37.201 39.6423C36.9306 39.5105 36.6994 39.3102 36.5306 39.0612C36.3629 38.7953 36.1707 38.3349 35.7975 38.326C35.4243 38.317 35.3975 38.6902 35.326 38.9584C35.1919 39.4568 34.7293 39.6579 34.727 40.2256C34.727 40.6882 34.9684 41.1307 35.1852 41.524C35.3544 41.8343 35.544 42.1329 35.7528 42.418C35.4521 42.1555 35.1177 41.9346 34.7583 41.7609C34.6068 41.6709 34.434 41.6231 34.2577 41.6224C34.0007 41.6447 33.9582 41.7989 33.6543 41.7073C33.4308 41.6402 32.9481 41.3788 32.7604 41.6849C32.5726 41.9911 33.0084 42.3934 33.2163 42.5632Z" fill="#222221"/>
</g>
<path d="M38.9646 41.571C38.9646 41.571 38.9646 41.5875 38.9646 41.5851C38.9646 41.5828 38.9552 41.5663 38.9646 41.571Z" fill="#F1D1C5"/>
<path d="M34.1886 42.6884C35.2144 43.6248 37.2526 43.8483 37.8068 45.2406V45.3032C37.8586 45.3347 37.9183 45.351 37.9789 45.3501C38.2314 44.9434 38.2337 44.4405 38.3007 43.969C38.3852 43.2532 38.5602 42.5511 38.8214 41.8794C38.8214 41.8615 38.8036 41.8504 38.7924 41.8682C38.5377 42.3764 38.3563 42.9182 38.2538 43.4773C38.1398 44.0383 38.1733 44.7556 37.9096 45.2831C37.9086 45.2637 37.9086 45.2443 37.9096 45.225C38.0258 44.5813 37.8783 43.8841 37.7174 43.2739C37.5096 42.4761 37.1989 41.7096 36.9218 40.9385C36.9218 40.9072 36.8659 40.9385 36.8749 40.9609C37.0984 41.714 37.3464 42.4672 37.5453 43.227C37.6822 43.691 37.775 44.1669 37.8225 44.6484C37.4336 43.0505 35.8513 41.8861 35.5876 40.2413C35.5858 40.2347 35.5819 40.2288 35.5764 40.2247C35.571 40.2205 35.5643 40.2183 35.5575 40.2183C35.5506 40.2183 35.5439 40.2205 35.5385 40.2247C35.533 40.2288 35.5291 40.2347 35.5273 40.2413C35.7865 41.9867 37.3867 43.2136 37.7621 44.9009C37.6799 44.7535 37.5768 44.6187 37.4559 44.5009C37.224 44.1724 36.9446 43.8802 36.6268 43.6338C36.1083 43.2315 35.5094 42.9767 35.0155 42.5387C34.9976 42.5208 34.9708 42.5387 34.9864 42.57C35.3463 43.0169 35.8804 43.2404 36.3385 43.5578C36.6161 43.7462 36.8724 43.9643 37.1028 44.2081C36.9544 44.103 36.7999 44.0068 36.6402 43.9198C35.8402 43.4728 34.9797 43.1689 34.2199 42.6348C34.2164 42.6327 34.2125 42.6314 34.2084 42.6308C34.2044 42.6303 34.2003 42.6305 34.1963 42.6316C34.1884 42.6337 34.1816 42.6388 34.1774 42.646C34.1733 42.6531 34.1721 42.6615 34.1742 42.6695C34.1763 42.6775 34.1815 42.6843 34.1886 42.6884Z" fill="white"/>
<path d="M39.2014 40.6905C39.2025 40.8717 39.1595 41.0504 39.0762 41.2112C39.0762 41.2247 39.0472 41.2112 39.0516 41.2112C39.1037 41.0457 39.1367 40.8747 39.15 40.7017C39.1544 40.6637 39.1991 40.6592 39.2014 40.6905Z" fill="white"/>
<path d="M35.5763 39.6781C35.5763 39.7764 35.5607 39.877 35.5607 39.9776C35.5607 40.0088 35.5138 40.0066 35.5071 39.9776C35.4794 39.876 35.4833 39.7684 35.5182 39.6691C35.5294 39.6468 35.5741 39.6446 35.5763 39.6781Z" fill="white"/>
<path d="M33.7996 42.2504C33.8447 42.2855 33.8872 42.3235 33.927 42.3644C33.9297 42.3679 33.9312 42.372 33.9315 42.3764C33.9318 42.3807 33.9309 42.3851 33.9287 42.3889C33.9266 42.3927 33.9234 42.3958 33.9195 42.3978C33.9156 42.3998 33.9113 42.4006 33.9069 42.4002C33.8455 42.3855 33.7919 42.3479 33.7572 42.2951C33.7348 42.2683 33.7728 42.2258 33.7996 42.2504Z" fill="white"/>
<path d="M38.5131 44.6238C38.3946 45.0707 38.2069 45.5177 38.3499 46.0004C38.3633 46.0407 38.3209 46.0697 38.2985 46.034C38.1197 45.7591 36.7744 44.9389 36.8839 44.7065C36.9487 44.5657 37.3174 44.8227 37.4091 44.6238C37.4323 44.5027 37.4323 44.3783 37.4091 44.2573C37.4091 44.1343 37.3934 44.0092 37.3956 43.8863C37.3979 43.7634 37.4247 43.6293 37.5297 43.6047C37.6348 43.5801 37.7532 43.741 37.8113 43.8505C37.8694 43.96 37.9029 44.036 37.9476 44.1299C37.9923 44.2237 38.0572 44.4249 38.1711 44.2886C38.2851 44.1522 38.3209 44.0137 38.4505 43.9354C38.7298 43.7567 38.5488 44.4897 38.5131 44.6238Z" fill="#455A64"/>
<path d="M39.7266 48.3315C39.635 48.3829 39.5434 48.4387 39.454 48.4946L39.4406 48.4611C39.1433 47.7906 38.7858 47.1336 38.4841 46.4497C38.2005 45.7972 38.0029 45.1105 37.8963 44.4071C38.1198 45.6563 38.9355 46.8028 39.5098 47.9113C39.5903 48.0454 39.6618 48.1884 39.7266 48.3315Z" fill="#455A64"/>
<path d="M39.2974 48.0453C39.2974 48.0453 39.1186 46.1278 39.4293 45.14C39.7399 44.1522 40.8238 42.8225 40.8238 42.8225C41.0815 43.7488 41.0751 44.7287 40.8053 45.6516C40.5356 46.5744 40.0133 47.4036 39.2974 48.0453Z" fill="#455A64"/>
<path d="M66.9002 78.2805C67.3114 78.4168 79.0108 78.3833 79.4555 78.0995C79.6232 77.9944 79.7193 76.2892 79.7751 74.2265C79.787 73.7795 79.7967 73.3221 79.8042 72.8543C79.8042 72.3001 79.8198 71.7369 79.8221 71.196C79.8377 68.7534 79.8042 66.6012 79.8042 66.6012H72.1856V71.196V72.8543L72.2258 74.2265C72.2258 74.2265 67.7561 76.2378 67.2958 76.6066C66.8354 76.9753 66.5024 78.1464 66.9002 78.2805Z" fill="#F7A9A0"/>
<path d="M79.7864 73.7773C79.7864 73.9293 79.7864 74.079 79.7752 74.2243C79.7194 76.2871 79.6233 77.9923 79.4557 78.0973C79.0087 78.3811 67.3115 78.4146 66.9003 78.2783C66.4891 78.142 66.8511 76.9665 67.3026 76.6044C67.5462 76.41 68.9407 75.7418 70.1833 75.1629C69.8056 75.5026 69.2894 76.0189 69.4324 76.2021C69.8078 76.6983 77.384 75.6591 79.4378 74.0075C79.5452 73.9183 79.6622 73.8411 79.7864 73.7773Z" fill="#263238"/>
<path d="M82.343 34.1447C82.343 34.1447 80.2847 54.5041 80.2378 54.7611C80.2378 54.7946 80.2155 55.1879 80.1953 55.8249C80.0836 59.3313 79.811 70.2597 79.811 70.2597H71.4191C71.4191 70.2597 71.9666 57.3155 72.2818 54.2962C72.6818 50.4434 75.2094 34.1447 75.2094 34.1447H82.343Z" fill="#37474F"/>
<path d="M79.2412 55.4695C79.5004 51.0579 79.89 46.6568 80.41 42.266C80.705 39.7943 81.0604 37.3293 81.4135 34.862C81.4135 34.8419 81.4492 34.8419 81.447 34.862C80.7966 39.2512 80.3296 43.674 79.9407 48.0923C79.5518 52.5106 79.2702 56.9289 79.087 61.3539C78.9842 63.8636 78.906 66.3733 78.8255 68.8808C78.8255 68.8933 78.8206 68.9052 78.8118 68.914C78.803 68.9228 78.791 68.9277 78.7786 68.9277C78.7661 68.9277 78.7542 68.9228 78.7454 68.914C78.7366 68.9052 78.7316 68.8933 78.7316 68.8808C78.8434 64.4089 78.973 59.9392 79.2412 55.4695Z" fill="#263238"/>
<path d="M71.9421 68.9053C72.1656 68.8762 74.7178 68.8383 75.6989 68.8383C76.5369 68.8383 79.1673 68.9053 79.4556 68.9031C79.478 68.9031 79.4757 68.9254 79.4556 68.9299C79.1115 68.9835 77.6141 69.0237 76.0073 69.0237C75.0284 69.0237 72.0695 68.9545 71.9421 68.9388C71.9387 68.9376 71.9357 68.9353 71.9336 68.9323C71.9315 68.9293 71.9304 68.9257 71.9304 68.9221C71.9304 68.9184 71.9315 68.9148 71.9336 68.9119C71.9357 68.9089 71.9387 68.9066 71.9421 68.9053Z" fill="#263238"/>
<path d="M82.3429 34.1447C82.3429 34.1447 80.2846 54.5041 80.2377 54.7611C80.2377 54.7946 80.2154 55.1879 80.1953 55.8249L76.2351 34.1469L82.3429 34.1447Z" fill="#263238"/>
<path d="M82.8616 78.3588C83.293 78.3833 94.5834 75.3171 94.9298 74.9283C95.0661 74.7808 94.7063 73.1113 94.2348 71.1044C94.132 70.6709 94.0403 70.2105 93.9062 69.7635C93.7386 69.2026 93.5643 68.6461 93.3877 68.103C92.6346 65.7632 91.9083 63.8256 91.9083 63.8256L84.7568 65.7453L86.0306 69.9915L86.5514 71.7347L86.9447 73.051C86.9447 73.051 83.1455 76.1574 82.8013 76.6267C82.4571 77.0961 82.4325 78.3319 82.8616 78.3588Z" fill="#F7A9A0"/>
<path d="M94.9385 74.9283C94.5832 75.3171 83.2928 78.3834 82.8592 78.3588C82.4256 78.3342 82.4726 77.1028 82.8145 76.6357C83.0246 76.3519 84.5018 75.0959 85.6326 74.155C85.3064 74.5394 84.7968 75.1942 84.9622 75.3663C85.3957 75.7932 92.4288 73.8019 94.4245 71.9045C94.8089 73.5382 95.0547 74.8009 94.9385 74.9283Z" fill="#263238"/>
<path d="M75.2028 34.1446C75.2028 34.1446 75.757 37.0834 77.8086 38.5808C77.8086 38.5808 80.6983 54.4683 81.0626 56.2651C81.7688 59.7582 84.7433 69.7278 84.7433 69.7278L93.3207 67.1086C93.3207 67.1086 89.6198 55.0762 89.1236 53.8135C88.8532 53.1252 86.7793 39.9575 86.8217 39.6468C87.3268 35.8856 85.5412 34.1245 85.5412 34.1245L75.2028 34.1446Z" fill="#37474F"/>
<path d="M82.0032 34.7994C82.1742 35.3908 82.5355 35.9093 83.0313 36.2744C83.5784 36.6634 84.2266 36.8854 84.8974 36.9135C85.0091 36.9135 85.018 37.0945 84.8974 37.0945C83.5296 37.0945 82.144 36.2274 81.9451 34.8083C81.9429 34.7748 81.9943 34.7681 82.0032 34.7994Z" fill="#263238"/>
<path d="M76.4944 37.6488C76.9911 37.8486 77.4653 38.1003 77.9091 38.3997C78.3784 38.6903 78.803 39.03 79.2679 39.3451C79.2704 39.3479 79.2719 39.3515 79.2722 39.3553C79.2725 39.3591 79.2716 39.3629 79.2696 39.3662C79.2676 39.3694 79.2646 39.3719 79.2611 39.3733C79.2576 39.3748 79.2537 39.375 79.25 39.3741C78.7762 39.1015 78.2801 38.8623 77.8085 38.5807C77.3356 38.3236 76.8868 38.0244 76.4676 37.6868C76.4587 37.6712 76.4743 37.6421 76.4944 37.6488Z" fill="#263238"/>
<path d="M76.3022 34.7949C76.376 35.1078 76.4654 35.4162 76.5481 35.7291C76.6308 36.0419 76.6866 36.3191 76.7716 36.6074C76.8486 36.887 77.0037 37.1389 77.2185 37.3337C77.3392 37.4342 77.4711 37.5236 77.5985 37.6175L77.8219 37.765C77.8219 37.7248 77.8018 37.6823 77.7907 37.6398C77.7638 37.5214 77.7393 37.4007 77.7124 37.2823C77.6566 37.0186 77.6007 36.7526 77.5493 36.4867C77.4443 35.9659 77.3459 35.4385 77.2141 34.9223C77.2141 34.9181 77.2157 34.9141 77.2186 34.9112C77.2216 34.9083 77.2256 34.9066 77.2297 34.9066C77.2339 34.9066 77.2378 34.9083 77.2408 34.9112C77.2437 34.9141 77.2454 34.9181 77.2454 34.9223C77.3996 35.4318 77.5672 35.9347 77.7057 36.4487C77.7728 36.699 78.0298 37.9483 78.0432 38.0377C78.0566 38.127 78.0678 38.2209 78.0745 38.3125C78.0911 38.4054 78.0956 38.5001 78.0879 38.5941C78.0879 38.6187 78.0566 38.6165 78.0454 38.5941C78.0036 38.509 77.9728 38.4189 77.9538 38.3259C77.927 38.2366 77.9024 38.1472 77.8823 38.0555L77.8622 37.9572C77.7348 37.8857 77.6141 37.7918 77.4957 37.7136C77.3772 37.6354 77.2364 37.546 77.1135 37.4521C76.887 37.2779 76.718 37.0397 76.6285 36.7683C76.5396 36.4763 76.4761 36.1772 76.4386 35.8743C76.3827 35.519 76.338 35.1614 76.271 34.8083C76.2665 34.7815 76.2978 34.7725 76.3022 34.7949Z" fill="#263238"/>
<path d="M85.0361 67.9265C85.2395 67.8348 87.6733 67.0549 88.6119 66.7688C89.4164 66.5252 91.9507 65.8213 92.2256 65.7363C92.2457 65.7363 92.2524 65.752 92.2256 65.7609C91.9128 65.9129 90.4936 66.3867 88.9561 66.8538C88.0174 67.1398 85.168 67.9377 85.0406 67.96C85.037 67.9593 85.0336 67.9574 85.0311 67.9547C85.0285 67.952 85.0269 67.9485 85.0264 67.9448C85.0259 67.9411 85.0266 67.9374 85.0283 67.9341C85.0301 67.9308 85.0328 67.9281 85.0361 67.9265Z" fill="#263238"/>
<path d="M89.6757 59.0854C89.336 58.0976 88.9918 57.1121 88.6588 56.122C88.3297 55.1504 88.0647 54.1582 87.8655 53.1519C87.4565 51.1003 87.1034 49.0331 86.7704 46.9659C86.6035 45.923 86.4448 44.8741 86.2944 43.8192C86.2228 43.3007 86.1521 42.7793 86.0821 42.2548C86.015 41.7498 85.9323 41.2469 85.9055 40.7374C85.8027 38.8556 86.4732 36.8666 85.6552 35.0698C85.5636 34.8694 85.4512 34.6792 85.32 34.5022C85.3088 34.4865 85.282 34.5022 85.2932 34.52C86.3838 36.2252 85.7848 38.2969 85.7535 40.1764C85.7736 41.2063 85.8745 42.233 86.0552 43.2471C86.2042 44.2751 86.3584 45.3017 86.5178 46.3267C86.8352 48.3843 87.1853 50.4373 87.5682 52.4859C87.7356 53.4934 87.9639 54.4897 88.2521 55.4695C88.5627 56.4573 88.9225 57.4317 89.2578 58.4105C89.9461 60.3884 91.7161 65.3385 91.8033 65.5888C91.8033 65.609 91.8457 65.6 91.8368 65.5777C91.1663 63.5931 90.3595 61.0744 89.6757 59.0854Z" fill="#263238"/>
<path d="M78.6646 23.2251C76.698 25.3013 71.9221 27.6099 70.3466 27.6099C68.5587 27.6099 65.5327 25.118 63.2621 23.0173C62.7637 22.5569 65.8344 18.038 66.3909 18.5118C67.7653 19.6985 70.9835 22.939 71.4819 23.0173C72.2104 23.1312 75.147 22.3468 77.4735 21.6898C80.0525 20.9545 79.6636 22.1702 78.6646 23.2251Z" fill="#F7A9A0"/>
<path d="M64.8689 23.4665C65.5103 23.4665 67.1507 19.5734 66.8267 18.9968C66.6995 18.8156 66.5493 18.6518 66.3797 18.5096C65.984 17.688 65.7099 16.8132 65.5662 15.9127C65.4299 14.831 65.3539 13.2108 64.7684 13.2622C63.9169 13.3337 63.7694 15.3965 63.756 16.5854C63.1973 16.2613 62.6855 16.0356 62.3391 16.0133C61.1881 15.9395 60.207 21.035 61.0742 21.8239C61.9413 22.6128 64.2275 23.4687 64.8689 23.4665Z" fill="#F7A9A0"/>
<path d="M59.818 22.7983C59.818 22.7983 61.0896 23.0218 61.7153 22.367C63.6686 20.3243 61.4539 13.9439 60.3744 14.2031C59.295 14.4624 58.2536 18.5007 58.2536 18.5007L59.818 22.7983ZM59.8671 22.1748L58.6491 18.8225C58.6491 18.8225 59.5118 15.3071 60.3499 15.106C61.1879 14.9049 62.8641 20.2461 61.3421 21.8351C60.8549 22.3514 59.8671 22.1703 59.8671 22.1703V22.1748Z" fill="#37474F"/>
<path d="M49.1869 19.6204L49.578 21.6027L47.8839 22.5882L49.1869 19.6204Z" fill="#455A64"/>
<path d="M55.612 27.4446L62.2562 24.5035L56.8189 15.1484L52.5727 17.0726L55.612 27.4446Z" fill="#455A64"/>
<path d="M56.8188 15.1484L57.1809 14.1293L51.7077 16.4848L52.5726 17.0726L56.8188 15.1484Z" fill="#37474F"/>
<path d="M54.0968 22.2708L54.8097 24.7068L49.1622 21.8395L49.4908 21.1489L54.0968 22.2708Z" fill="#37474F"/>
<path d="M48.6236 20.5233C48.0001 19.9199 46.6503 19.8685 46.6436 20.4406C46.6436 20.7557 47.1263 20.8451 47.7163 20.6216C48.0056 20.513 48.3177 20.4792 48.6236 20.5233Z" fill="#EBEBEB"/>
<path d="M47.7031 22.5525C47.2025 22.776 46.8449 23.5381 47.1734 23.6699C47.3567 23.7481 47.5265 23.4889 47.5399 23.0933C47.5485 22.9023 47.6046 22.7164 47.7031 22.5525Z" fill="#EBEBEB"/>
<path d="M47.8952 21.4999C47.5679 21.4351 47.2308 21.4387 46.905 21.5107C46.5792 21.5826 46.2718 21.7212 46.0023 21.9178C45.2983 22.4274 44.8849 23.4822 45.5553 23.7437C45.8146 23.8532 46.1811 23.6319 46.4649 23.2163C46.8962 22.5749 47.142 21.7502 47.8952 21.4999Z" fill="#EBEBEB"/>
<path d="M64.0866 16.4759C64.2587 17.0502 63.4832 16.9228 63.4832 16.9228C63.4832 16.9228 64.5537 17.3698 64.5 18.0403C64.4464 18.7107 63.5167 18.4872 63.4497 18.4872C63.5078 18.5118 64.4799 18.9543 64.3593 19.6046C64.2386 20.255 63.329 19.9399 63.2709 19.9175C63.3178 19.9578 63.9168 20.4941 63.7179 20.9724C63.3625 21.7948 61.7914 20.4651 61.0718 20.5567C61.0718 20.5567 61.0874 21.7926 61.0718 21.8283C61.0718 21.8283 59.5521 20.5947 59.4828 19.6158C59.4717 19.4727 59.5101 19.33 59.5914 19.2117C59.6727 19.0933 59.7922 19.0064 59.9298 18.9655C59.9298 18.9655 59.3957 18.6236 59.4828 18.1006C59.523 17.8347 59.9879 17.6536 59.9879 17.6536C59.8713 17.5696 59.78 17.4551 59.724 17.3226C59.668 17.1902 59.6496 17.0449 59.6705 16.9027C59.7488 16.5362 60.2047 16.42 60.2047 16.42C60.2047 16.42 59.9343 15.9529 60.1354 15.6043C60.5265 14.9003 63.7223 15.2422 64.0866 16.4759Z" fill="#F7A9A0"/>
<path d="M60.2562 16.391C60.2562 16.391 60.245 16.3753 60.2562 16.3753C61.3766 16.2223 62.5171 16.414 63.5258 16.9251C63.5571 16.943 63.5437 17.0011 63.5057 16.9899C62.4574 16.6335 61.3627 16.4317 60.2562 16.391Z" fill="#263238"/>
<path d="M59.9566 17.6447C59.9566 17.6447 59.9566 17.6246 59.9566 17.6224C61.1936 17.4667 62.4455 17.7592 63.4854 18.447C63.5212 18.4716 63.5301 18.5297 63.4854 18.5029C62.7591 18.0693 60.9958 17.6693 59.9566 17.6447Z" fill="#263238"/>
<path d="M63.3267 19.9846C62.3031 19.3142 61.17 19.0549 59.9744 18.9477C59.9588 18.9477 59.961 18.9253 59.9744 18.9231C60.5778 18.8158 61.3376 18.9633 61.9187 19.1287C62.461 19.2721 62.9564 19.5548 63.3557 19.9489C63.3736 19.9645 63.349 19.9981 63.3267 19.9846Z" fill="#263238"/>
<path d="M63.501 16.9139C63.539 16.9341 63.4675 16.9676 63.501 16.9899C63.6574 17.0793 64.5536 17.7118 64.4329 18.0828C64.3368 18.38 63.8675 18.456 63.6775 18.4158L63.1971 18.313L63.6127 18.5767C63.7983 18.6919 63.9636 18.8369 64.1022 19.0058C64.1706 19.0802 64.2224 19.1683 64.2544 19.2642C64.2864 19.3601 64.2977 19.4616 64.2877 19.5622C64.2782 19.656 64.2365 19.7436 64.1697 19.8101C64.1028 19.8765 64.015 19.9177 63.9212 19.9265C63.7112 19.9436 63.5004 19.9067 63.3088 19.8192L62.7702 19.5958L63.2038 19.9801C63.3245 20.0868 63.4312 20.2085 63.5211 20.3422C63.6115 20.4659 63.6628 20.6137 63.6686 20.7668C63.6691 20.8355 63.6503 20.9029 63.6143 20.9613C63.5784 21.0198 63.5267 21.067 63.4652 21.0976C63.317 21.146 63.1579 21.1506 63.0071 21.111C62.6799 21.0317 62.3593 20.9271 62.0484 20.7981C61.8897 20.7378 61.7288 20.6774 61.5656 20.6238C61.4049 20.5613 61.2326 20.5346 61.0605 20.5456C61.2302 20.5541 61.3965 20.5958 61.55 20.6685C61.7064 20.7333 61.8606 20.8048 62.0148 20.8763C62.3232 21.0314 62.6457 21.1563 62.978 21.2495C63.1566 21.3033 63.347 21.3033 63.5256 21.2495C63.6202 21.2101 63.7011 21.1438 63.7583 21.0588C63.8156 20.9737 63.8465 20.8738 63.8474 20.7713C63.8448 20.5818 63.7856 20.3973 63.6775 20.2416C63.5801 20.091 63.4637 19.9535 63.3311 19.8326L63.2261 19.9936C63.4514 20.1014 63.7012 20.1477 63.9502 20.1276C64.0876 20.1137 64.2157 20.052 64.3122 19.9533C64.404 19.8533 64.4632 19.7279 64.4821 19.5935C64.496 19.4659 64.4822 19.3367 64.4417 19.2148C64.4013 19.093 64.335 18.9813 64.2474 18.8873C64.0921 18.7038 63.9079 18.5468 63.7021 18.4225L63.6373 18.5834C63.8809 18.6281 64.4128 18.599 64.6207 18.1565C64.8106 17.5419 63.7111 16.9989 63.501 16.9139Z" fill="#263238"/>
<path d="M63.4832 16.9228C63.6066 16.9192 63.7287 16.8966 63.8453 16.8558C63.8924 16.8405 63.9346 16.8131 63.9675 16.7761C64.0005 16.7392 64.0231 16.6942 64.033 16.6457C64.038 16.5366 64.0124 16.4282 63.9592 16.3328C63.9034 16.2233 63.8408 16.1093 63.7715 16.0021C63.8885 16.0673 63.9906 16.1564 64.071 16.2636C64.1659 16.3777 64.2117 16.5247 64.1984 16.6725C64.1819 16.7522 64.1422 16.8253 64.0844 16.8826C64.0268 16.9332 63.9565 16.9672 63.881 16.9809C63.7456 17.0044 63.6063 16.984 63.4832 16.9228Z" fill="#263238"/>
<path d="M66.7684 18.637L64.7571 25.8466C64.7571 25.8466 68.534 27.7596 70.1341 27.7931C71.7342 27.8266 76.3358 25.6968 78.8321 23.2162C79.7953 22.2574 79.9495 20.9478 77.5962 21.5244C75.243 22.101 71.998 22.7625 71.7521 22.7133C71.5063 22.6642 66.7684 18.637 66.7684 18.637Z" fill="#EBEBEB"/>
<path d="M67.906 19.8394C67.725 20.3445 67.5931 20.8719 67.4591 21.3881C67.325 21.9044 67.1775 22.4251 67.0434 22.9525C66.7797 23.994 66.5428 25.0443 66.3148 26.0947C66.3161 26.0981 66.3184 26.1011 66.3214 26.1032C66.3244 26.1053 66.3279 26.1064 66.3316 26.1064C66.3352 26.1064 66.3388 26.1053 66.3418 26.1032C66.3448 26.1011 66.3471 26.0981 66.3483 26.0947C66.6545 25.0622 66.9495 24.0275 67.2177 22.9861C67.3518 22.4661 67.4792 21.9446 67.5999 21.4217C67.7205 20.8987 67.8591 20.3735 67.9418 19.8439C67.9421 19.8415 67.9419 19.8391 67.9413 19.8368C67.9407 19.8346 67.9396 19.8324 67.9381 19.8306C67.9367 19.8287 67.9349 19.8271 67.9328 19.826C67.9308 19.8248 67.9285 19.824 67.9261 19.8237C67.9238 19.8235 67.9214 19.8236 67.9191 19.8243C67.9168 19.8249 67.9147 19.826 67.9128 19.8274C67.911 19.8289 67.9094 19.8307 67.9082 19.8327C67.9071 19.8348 67.9063 19.837 67.906 19.8394Z" fill="#A6A6A6"/>
<path d="M75.3659 29.7307L74.8408 35.1905C74.8408 35.1905 84.055 34.8709 86.2385 34.6094C86.2385 34.6094 83.5835 24.5817 81.0983 22.1345C79.8557 20.912 78.4746 21.0752 77.6365 22.0138C77.4131 22.2507 74.9302 25.9024 74.7156 27.2612C74.5346 28.4613 75.3659 29.7307 75.3659 29.7307Z" fill="#FFC727"/>
<path d="M80.2021 14.6076C80.4926 15.0344 82.6828 16.0714 83.827 14.2008C84.9713 12.3303 82.6023 9.97923 80.7586 11.2956C79.5183 12.1783 79.5875 13.7002 80.2021 14.6076Z" fill="#263238"/>
<path d="M80.0301 21.7948C79.9697 21.9759 78.9752 23.1 78.1305 22.9838C77.8556 22.9436 77.9986 21.435 77.9986 21.435L77.9852 21.3211L77.7774 19.7254L79.7194 18.7152L79.9988 18.5834C79.9988 18.5834 80.0278 19.0303 80.0569 19.5712C80.0569 19.598 80.0569 19.6226 80.0569 19.6494V19.7388L80.0703 19.9869C80.0703 20.0517 80.0703 20.112 80.0703 20.1791C80.0703 20.2461 80.0703 20.3109 80.0703 20.378C80.0896 20.8506 80.0761 21.324 80.0301 21.7948Z" fill="#F7A9A0"/>
<path d="M80.0569 19.5712C79.8593 19.9958 79.5717 20.3723 79.2139 20.6745C78.8562 20.9767 78.4369 21.1973 77.9852 21.3211L77.7774 19.7254L79.7194 18.7152L79.9988 18.5834C79.9988 18.5834 80.0278 19.0236 80.0569 19.5712Z" fill="#263238"/>
<path d="M75.8889 17.0301C75.3794 19.8058 76.984 20.4248 77.5829 20.5343C78.126 20.6327 79.9876 20.9009 80.7832 18.1945C81.5788 15.4881 80.448 14.3706 79.2188 14.0779C77.9897 13.7851 76.3873 14.2589 75.8889 17.0301Z" fill="#F7A9A0"/>
<path d="M76.3715 16.5989C76.4343 16.5968 76.4969 16.5916 76.5592 16.5832C76.6286 16.5857 76.6969 16.5652 76.7536 16.5251C76.7687 16.5092 76.7782 16.4888 76.7806 16.467C76.783 16.4452 76.7782 16.4233 76.767 16.4044C76.7389 16.3702 76.702 16.3443 76.6603 16.3294C76.6186 16.3144 76.5736 16.311 76.5301 16.3195C76.4389 16.3221 76.352 16.3587 76.2865 16.4223C76.2731 16.4381 76.2646 16.4575 76.262 16.478C76.2594 16.4986 76.2627 16.5195 76.2717 16.5381C76.2807 16.5568 76.2949 16.5725 76.3126 16.5833C76.3303 16.594 76.3507 16.5995 76.3715 16.5989Z" fill="#263238"/>
<path d="M78.2333 16.8738C78.1685 16.8581 78.1126 16.8335 78.0478 16.8112C77.9796 16.799 77.9175 16.7644 77.8712 16.7129C77.8599 16.6939 77.8553 16.6717 77.8581 16.6498C77.861 16.6279 77.8711 16.6076 77.8869 16.5922C77.9221 16.5653 77.9638 16.5482 78.0078 16.5427C78.0518 16.5372 78.0964 16.5435 78.1372 16.5609C78.2246 16.5841 78.3003 16.6391 78.3495 16.7151C78.36 16.7331 78.365 16.7539 78.3639 16.7747C78.3628 16.7956 78.3557 16.8157 78.3433 16.8325C78.331 16.8493 78.314 16.8622 78.2945 16.8696C78.2749 16.8769 78.2536 16.8784 78.2333 16.8738Z" fill="#263238"/>
<path d="M77.7504 17.457C77.7504 17.457 77.7638 17.457 77.7638 17.4749C77.7303 17.6649 77.7259 17.8884 77.889 17.9755C77.6767 17.9241 77.6901 17.6313 77.7504 17.457Z" fill="#263238"/>
<path d="M77.9471 17.2804C78.2578 17.3006 78.1974 17.9174 77.9114 17.8995C77.6253 17.8816 77.6879 17.2648 77.9471 17.2804Z" fill="#263238"/>
<path d="M78.0656 17.3252C78.117 17.3654 78.1639 17.4324 78.2287 17.4459C78.2935 17.4593 78.365 17.4012 78.4209 17.3431C78.4209 17.4615 78.3539 17.5665 78.2265 17.5822C78.0991 17.5978 78.0365 17.4749 78.0186 17.3587C78.0231 17.3408 78.0454 17.3095 78.0656 17.3252Z" fill="#263238"/>
<path d="M76.6934 17.2827C76.6934 17.2827 76.6777 17.2827 76.6777 17.2984C76.6777 17.4906 76.6219 17.7096 76.4542 17.7453C76.6576 17.7565 76.7135 17.4771 76.6934 17.2827Z" fill="#263238"/>
<path d="M76.5415 17.0681C76.2354 17.0167 76.1549 17.6335 76.4387 17.6805C76.7226 17.7274 76.7963 17.1106 76.5415 17.0681Z" fill="#263238"/>
<path d="M76.4074 17.0928C76.3538 17.1173 76.2979 17.171 76.2398 17.1687C76.1817 17.1665 76.1303 17.0905 76.0968 17.0212C76.0968 17.0212 76.0968 17.0212 76.0856 17.0212C76.0677 17.1375 76.0856 17.2648 76.1996 17.3028C76.3135 17.3408 76.3895 17.2447 76.423 17.1307C76.4409 17.1173 76.4275 17.0816 76.4074 17.0928Z" fill="#263238"/>
<path d="M77.6475 18.9432C77.6006 18.9856 77.5514 19.046 77.4799 19.0482C77.4088 19.0434 77.3395 19.0236 77.2766 18.9901C77.3024 19.0291 77.3382 19.0604 77.3802 19.0809C77.4223 19.1013 77.4691 19.1101 77.5157 19.1063C77.5551 19.0982 77.5912 19.0786 77.6194 19.0499C77.6477 19.0213 77.6668 18.9849 77.6744 18.9454C77.6744 18.9454 77.6542 18.9387 77.6475 18.9432Z" fill="#263238"/>
<path d="M76.9235 18.1676C76.9235 18.1676 76.8542 18.447 76.8386 18.5833C76.8386 18.5833 76.8699 18.6057 76.9146 18.6124C77.0277 18.6458 77.1478 18.6475 77.2617 18.6171C77.3757 18.5868 77.479 18.5256 77.5605 18.4403C77.5716 18.4403 77.5605 18.4135 77.5426 18.4202C77.3586 18.5187 77.1479 18.5555 76.9414 18.5252C76.9414 18.4872 77.0777 18.047 77.0554 18.0425C76.9498 18.0407 76.8446 18.0535 76.7425 18.0805C76.8721 17.4905 77.0956 16.9251 77.2163 16.3373C77.2165 16.3331 77.2153 16.3289 77.2129 16.3254C77.2106 16.3219 77.2072 16.3192 77.2033 16.3177C77.1993 16.3162 77.195 16.316 77.1909 16.3171C77.1868 16.3182 77.1832 16.3206 77.1805 16.3239C76.9238 16.9213 76.7269 17.5426 76.5928 18.1788C76.5794 18.2548 76.8677 18.1833 76.9235 18.1676Z" fill="#263238"/>
<path d="M76.9371 18.5096C76.9934 18.633 77.0812 18.7394 77.1918 18.818C77.2525 18.8589 77.3243 18.88 77.3974 18.8783C77.5583 18.8783 77.5941 18.7353 77.5941 18.6079C77.592 18.5416 77.583 18.4757 77.5673 18.4113C77.3729 18.5099 77.1522 18.5443 76.9371 18.5096Z" fill="#263238"/>
<path d="M77.1919 18.818C77.2525 18.8589 77.3244 18.88 77.3975 18.8783C77.5584 18.8783 77.5942 18.7353 77.5942 18.6079C77.5133 18.5927 77.4296 18.6051 77.3566 18.6432C77.2836 18.6813 77.2256 18.7429 77.1919 18.818Z" fill="#FF9ABB"/>
<path d="M80.7451 18.2213C80.5682 18.1268 80.4189 17.9879 80.3119 17.8183C80.2049 17.6486 80.144 17.454 80.135 17.2536C79.6546 17.0234 79.2442 16.6693 78.9461 16.2278C78.9639 16.2859 79.0846 16.7061 79.1517 16.9184C78.6608 16.8276 78.1991 16.6197 77.8057 16.3124C77.4124 16.005 77.099 15.6072 76.8922 15.1528C76.5423 15.4525 76.2649 15.8277 76.081 16.2502C76.081 16.2502 76.1145 15.1707 76.6889 14.4623C78.622 12.0554 80.7473 14.6299 80.7473 14.6299C80.7473 14.6299 81.4603 15.0344 81.5564 15.7473C81.7441 17.1664 80.7451 18.2213 80.7451 18.2213Z" fill="#263238"/>
<path d="M77.8152 16.5832C78.0935 16.7484 78.3948 16.8711 78.7092 16.9475C78.216 16.7958 77.7754 16.5085 77.4376 16.1184C77.2939 15.9517 77.1715 15.7678 77.0733 15.5709C76.9588 15.3636 76.8866 15.1357 76.861 14.9004C76.861 14.8825 76.8341 14.8848 76.8341 14.9004C76.8334 15.1399 76.8727 15.3778 76.9504 15.6044C77.038 15.8247 77.1644 16.0276 77.3236 16.2033C77.4675 16.3573 77.6322 16.4905 77.813 16.5989" fill="#263238"/>
<path d="M80.2916 18.0872C80.2916 18.0872 80.9888 17.2693 81.3643 17.5263C81.7397 17.7833 81.1587 19.0102 80.676 19.1398C80.615 19.1605 80.5504 19.1687 80.4862 19.1639C80.422 19.159 80.3594 19.1412 80.3022 19.1116C80.245 19.0819 80.1944 19.0411 80.1534 18.9914C80.1124 18.9417 80.0819 18.8843 80.0636 18.8225L80.2916 18.0872Z" fill="#F7A9A0"/>
<path d="M81.19 17.8727C81.19 17.8727 81.19 17.8727 81.19 17.8861C81.0326 17.9468 80.8896 18.0399 80.7703 18.1592C80.651 18.2785 80.5579 18.4215 80.4972 18.5789C80.5195 18.548 80.5482 18.5223 80.5813 18.5035C80.6144 18.4847 80.6511 18.4732 80.6891 18.4698C80.727 18.4664 80.7652 18.4712 80.8011 18.4838C80.837 18.4965 80.8698 18.5167 80.8972 18.5431C80.8972 18.5431 80.8972 18.5632 80.8861 18.561C80.8303 18.5372 80.7685 18.5313 80.7093 18.5441C80.6501 18.557 80.5962 18.5878 80.5553 18.6325C80.4863 18.7072 80.4263 18.7897 80.3765 18.8784C80.3586 18.9052 80.3072 18.8784 80.3206 18.8515C80.3586 18.4269 80.7363 17.8727 81.19 17.8727Z" fill="#263238"/>
<path d="M80.095 21.4417C80.095 21.4417 79.315 25.223 79.7731 30.4481C80.6358 40.3015 83.0807 54.8593 83.6685 55.8248C84.5624 57.3065 93.9353 58.2585 93.9353 58.2585C91.9962 50.0148 89.561 41.8958 86.6431 33.9456C86.6431 33.9456 84.7211 28.3988 84.0395 26.9193C81.4761 21.3769 80.095 21.4417 80.095 21.4417Z" fill="#EBEBEB"/>
<path d="M88.8732 42.0269C88.0131 42.2915 87.1377 42.5035 86.2518 42.6616C85.0114 42.8627 83.7577 42.9409 83.4023 42.9923C83.3688 42.9923 83.3711 43.104 83.4023 43.104C83.8739 43.0884 85.3221 43.0012 86.2697 42.8493C87.1361 42.7005 87.9878 42.4762 88.8151 42.1788C88.8531 42.4425 88.8844 42.6481 88.9269 42.9096C88.0799 43.2203 86.4373 43.7857 83.6504 43.8751C83.6258 43.7656 83.5454 43.1778 83.4962 43.0214C83.4962 42.9968 83.3867 43.0102 83.3889 43.0482C83.3889 43.2091 83.5543 44.626 83.599 44.912C83.7085 45.6182 84.075 47.5938 84.3119 47.9604C84.8505 48.7694 86.5468 48.4967 87.0228 48.4252C87.4988 48.3537 89.0185 48.1548 89.499 47.5089C89.7538 47.1625 89.5593 45.5378 89.2755 44.1187C89.1459 43.4482 88.9157 42.0336 88.8732 42.0269ZM87.1211 48.233C85.6171 48.4766 84.9131 48.2688 84.6315 47.9917C84.3008 47.6698 84.1845 47.0351 84.0415 46.3356C83.9365 45.7859 83.6772 44.0516 83.6683 44.0159C85.4705 44.046 87.2619 43.7327 88.947 43.0929C89.0833 43.9131 89.1906 44.5679 89.3247 45.3903C89.4208 45.9848 89.5482 46.986 89.2979 47.3815C89.0923 47.7123 88.2073 48.0565 87.1211 48.233Z" fill="#A6A6A6"/>
<path d="M86.4664 42.5074C86.7458 43.3209 86.4396 44.626 87.081 44.6059C87.6531 44.588 87.776 43.6628 87.776 43.6628C87.776 43.6628 87.9727 44.7512 88.5806 44.5567C89.1885 44.3623 89.1192 43.3209 89.1192 43.3209C89.1192 43.3209 89.2421 44.2327 89.8343 43.9913C90.4266 43.75 90.5294 42.8583 90.5294 42.8583C90.5294 42.8583 90.7529 43.0951 91.0881 42.7398C91.5798 42.2303 91.3697 40.715 91.0747 39.9485C90.7797 39.1819 89.1237 36.5962 88.8622 36.2096L83.9343 38.0735C83.9343 38.0735 83.836 39.6781 83.8829 40.4983C83.9299 41.3184 84.8417 43.9757 85.5166 43.7947C86.1915 43.6136 85.5166 41.7475 85.4518 41.2536C85.387 40.7597 85.4898 40.6614 85.6909 40.8625C85.8228 40.9922 86.3435 42.1409 86.4664 42.5074Z" fill="#F7A9A0"/>
<path d="M87.7604 43.6248C87.8431 42.3241 87.6532 41.7408 87.0386 40.6167C87.0274 40.5943 87.0565 40.572 87.0721 40.5921C87.7739 41.6402 88.1158 42.3375 87.823 43.6315C87.8096 43.6829 87.756 43.6739 87.7604 43.6248Z" fill="#263238"/>
<path d="M89.1036 43.3701C89.0701 42.0135 88.8801 41.3789 88.3124 40.1542C88.3124 40.1363 88.3348 40.1206 88.3437 40.1385C88.9918 41.2939 89.3159 41.9979 89.1706 43.3589C89.1639 43.4193 89.1036 43.4327 89.1036 43.3701Z" fill="#263238"/>
<path d="M90.5182 42.8448C90.393 41.533 90.203 40.8334 89.5102 39.716C89.5077 39.7134 89.5058 39.7103 89.5046 39.7069C89.5035 39.7035 89.5031 39.6999 89.5034 39.6963C89.5038 39.6927 89.505 39.6893 89.5069 39.6862C89.5087 39.6831 89.5112 39.6804 89.5142 39.6784C89.5172 39.6764 89.5206 39.6751 89.5242 39.6746C89.5278 39.6741 89.5314 39.6743 89.5349 39.6753C89.5383 39.6764 89.5415 39.6781 89.5442 39.6805C89.5469 39.6829 89.5491 39.6859 89.5505 39.6892C90.3684 40.7619 90.6098 41.6402 90.5584 42.8448C90.5539 42.9186 90.5271 42.9275 90.5182 42.8448Z" fill="#263238"/>
<path d="M81.8269 23.0441C84.75 27.011 88.5917 35.3871 89.0946 36.7281C89.4365 37.6354 84.2539 39.4791 84.1131 38.8266C83.9365 37.993 81.1966 27.5294 80.4658 23.652C80.0636 21.5155 81.105 22.063 81.8269 23.0441Z" fill="#F7A9A0"/>
<path d="M83.0404 37.3672L89.1058 35.8497C89.1058 35.8497 83.5522 25.0487 82.0191 23.0351C80.4547 20.988 80.1731 22.1412 80.4547 24.3358C80.7743 26.7048 83.0404 37.3672 83.0404 37.3672Z" fill="#EBEBEB"/>
<path d="M88.2809 35.1906C87.8675 35.2397 87.4563 35.3492 87.0495 35.4364C86.6428 35.5235 86.2316 35.6152 85.8248 35.709C85.0091 35.8968 84.1934 36.089 83.3889 36.3169C83.3854 36.3182 83.3825 36.3205 83.3804 36.3235C83.3783 36.3265 83.3772 36.33 83.3772 36.3337C83.3772 36.3373 83.3783 36.3409 83.3804 36.3439C83.3825 36.3469 83.3854 36.3492 83.3889 36.3504C84.2135 36.2074 85.0315 36.0241 85.8472 35.8364C86.2472 35.7448 86.645 35.6487 87.0428 35.5526C87.4406 35.4565 87.8809 35.3693 88.2832 35.233C88.2876 35.2313 88.2913 35.2283 88.2939 35.2243C88.2965 35.2204 88.2977 35.2157 88.2975 35.211C88.2972 35.2063 88.2955 35.2017 88.2925 35.1981C88.2896 35.1944 88.2855 35.1918 88.2809 35.1906Z" fill="#A6A6A6"/>
<path d="M83.6929 37.2018C83.5789 37.2018 83.1163 37.2533 83.0984 37.26C83.0984 37.2018 82.7967 35.2709 82.7162 34.8709C82.5598 34.0887 82.3922 33.3065 82.2291 32.5266C81.8961 30.9465 81.543 29.371 81.1988 27.7932C81.0044 26.8992 80.8032 26.0209 80.5864 25.1382C80.5864 25.118 80.5507 25.127 80.5529 25.1493C80.6445 25.6656 80.7406 26.1796 80.8412 26.6958C80.7451 26.4724 80.6446 26.2489 80.5574 26.0254C80.5574 26.0053 80.5149 26.0254 80.5239 26.0254C80.6155 26.2489 80.6937 26.4969 80.7786 26.7316C80.8233 26.8568 80.8725 26.9797 80.9239 27.1004C81.1072 28.0323 81.2994 28.962 81.4893 29.8917C81.8111 31.4739 82.1285 33.0584 82.4771 34.6362C82.5732 35.0698 82.9934 37.3851 83.009 37.3806C83.0247 37.3762 83.6012 37.2532 83.7085 37.2086C83.7108 37.222 83.7108 37.1996 83.6929 37.2018Z" fill="#A6A6A6"/>
<path d="M77.9338 21.7367C77.9338 21.7367 76.2688 23.9313 75.7794 30.8392C75.2497 38.2924 74.1189 54.4414 74.0317 55.0135C73.9446 55.5856 71.6114 56.9221 71.6114 56.9221L75.2028 29.7553C75.2028 29.7553 74.5323 28.4144 74.653 27.4288C74.8005 26.1148 77.2901 22.0295 77.9338 21.7367Z" fill="#EBEBEB"/>
<path d="M76.1793 24.1235C76.0117 24.347 75.862 24.6085 75.7145 24.8588L75.7413 24.7694C75.7838 24.6398 75.8173 24.5057 75.8486 24.3716C75.8486 24.3716 75.8374 24.3582 75.8329 24.3716C75.786 24.5012 75.7391 24.6331 75.7033 24.7649L75.6363 24.9884C75.5469 25.1359 75.2608 25.7639 75.1893 25.9136C75.1781 25.9338 75.2116 25.9516 75.2206 25.9315C75.2921 25.7773 75.6474 25.1851 75.7256 25.0376C75.8798 24.7314 76.0542 24.4342 76.2084 24.1258L76.1793 24.1235Z" fill="#A6A6A6"/>
<path d="M77.9338 21.7367C77.384 22.4533 76.8305 23.1677 76.2733 23.8799V23.8218L76.7046 24.2084L76.7382 24.2397L76.7069 24.2755L75.8129 25.2901L75.8263 25.2566C75.8263 26.1863 75.8263 27.1182 75.8263 28.0479C75.8263 28.9776 75.804 29.9095 75.7794 30.8392C75.7526 29.9095 75.7392 28.9776 75.7303 28.0479C75.7213 27.1182 75.7191 26.1863 75.7303 25.2566V25.2365L75.7414 25.2208L76.6354 24.2129V24.2777L76.213 23.8844L76.1839 23.8576L76.2085 23.8263C76.7791 23.1245 77.3542 22.428 77.9338 21.7367Z" fill="#A6A6A6"/>
<path d="M80.0905 21.4351C80.3885 22.2932 80.682 23.1537 80.971 24.0163L80.9867 24.061H80.9397L80.1039 24.2241L80.1352 24.1817L80.609 25.3505V25.3661C80.4905 26.2601 80.3542 27.1764 80.2246 28.0792C80.0949 28.9821 79.9497 29.8872 79.7977 30.7901C79.9005 29.8813 80.0115 28.9739 80.1307 28.0681C80.2536 27.1607 80.3721 26.2556 80.5062 25.3505V25.3773L80.0413 24.2063L80.019 24.1504H80.0771L80.9151 23.9962L80.8816 24.0521C80.6179 23.176 80.3587 22.3044 80.0905 21.4351Z" fill="#A6A6A6"/>
<path d="M89.5997 78.3588H66.9786V81.6954H89.5997V78.3588Z" fill="#455A64"/>
</svg>
